<svg version="1.1" viewBox="0.0 0.0 600.0 371.0" fill="none" stroke="none" stroke-linecap="square" stroke-miterlimit="10" width="600" height="371" xmlns:xlink="http://www.w3.org/1999/xlink" xmlns="http://www.w3.org/2000/svg"><path fill="#ffffff" d="M0 0L600.0 0L600.0 371.0L0 371.0L0 0Z" fill-rule="nonzero"/><path stroke="#333333" stroke-width="1.0" stroke-linecap="butt" d="M77.5 300.5L581.5 300.5" fill-rule="nonzero"/><path stroke="#cccccc" stroke-width="1.0" stroke-linecap="butt" d="M77.5 208.5L581.5 208.5" fill-rule="nonzero"/><path stroke="#cccccc" stroke-width="1.0" stroke-linecap="butt" d="M77.5 117.5L581.5 117.5" fill-rule="nonzero"/><path stroke="#cccccc" stroke-width="1.0" stroke-linecap="butt" d="M77.5 25.5L581.5 25.5" fill-rule="nonzero"/><clipPath id="id_0"><path d="M77.55 25.55L581.45 25.55L581.45 300.45L77.55 300.45L77.55 25.55Z" clip-rule="nonzero"/></clipPath><path stroke="#000000" stroke-width="2.0" stroke-linecap="butt" stroke-opacity="0.0" clip-path="url(#id_0)" d="M138.0 300.0L99.0 300.0L99.0 284.0C99.0 282.89542 99.89543 282.0 101.0 282.0L136.0 282.0C137.10457 282.0 138.0 282.89542 138.0 284.0Z" fill-rule="nonzero"/><path fill="#4527a4" clip-path="url(#id_0)" d="M138.0 300.0L99.0 300.0L99.0 284.0C99.0 282.89542 99.89543 282.0 101.0 282.0L136.0 282.0C137.10457 282.0 138.0 282.89542 138.0 284.0Z" fill-rule="nonzero"/><path stroke="#000000" stroke-width="2.0" stroke-linecap="butt" stroke-opacity="0.0" clip-path="url(#id_0)" d="M199.0 300.0L160.0 300.0L160.0 275.0C160.0 273.89542 160.89543 273.0 162.0 273.0L197.0 273.0C198.10457 273.0 199.0 273.89542 199.0 275.0Z" fill-rule="nonzero"/><path fill="#4527a4" clip-path="url(#id_0)" d="M199.0 300.0L160.0 300.0L160.0 275.0C160.0 273.89542 160.89543 273.0 162.0 273.0L197.0 273.0C198.10457 273.0 199.0 273.89542 199.0 275.0Z" fill-rule="nonzero"/><path stroke="#000000" stroke-width="2.0" stroke-linecap="butt" stroke-opacity="0.0" clip-path="url(#id_0)" d="M259.0 300.0L220.0 300.0L220.0 260.0C220.0 258.89542 220.89543 258.0 222.0 258.0L257.0 258.0C258.10458 258.0 259.0 258.89542 259.0 260.0Z" fill-rule="nonzero"/><path fill="#4527a4" clip-path="url(#id_0)" d="M259.0 300.0L220.0 300.0L220.0 260.0C220.0 258.89542 220.89543 258.0 222.0 258.0L257.0 258.0C258.10458 258.0 259.0 258.89542 259.0 260.0Z" fill-rule="nonzero"/><path stroke="#000000" stroke-width="2.0" stroke-linecap="butt" stroke-opacity="0.0" clip-path="url(#id_0)" d="M319.0 300.0L280.0 300.0L280.0 238.0C280.0 236.89543 280.89542 236.0 282.0 236.0L317.0 236.0C318.10458 236.0 319.0 236.89543 319.0 238.0Z" fill-rule="nonzero"/><path fill="#4527a4" clip-path="url(#id_0)" d="M319.0 300.0L280.0 300.0L280.0 238.0C280.0 236.89543 280.89542 236.0 282.0 236.0L317.0 236.0C318.10458 236.0 319.0 236.89543 319.0 238.0Z" fill-rule="nonzero"/><path stroke="#000000" stroke-width="2.0" stroke-linecap="butt" stroke-opacity="0.0" clip-path="url(#id_0)" d="M380.0 300.0L341.0 300.0L341.0 209.0C341.0 207.89543 341.89542 207.0 343.0 207.0L378.0 207.0C379.10458 207.0 380.0 207.89543 380.0 209.0Z" fill-rule="nonzero"/><path fill="#4527a4" clip-path="url(#id_0)" d="M380.0 300.0L341.0 300.0L341.0 209.0C341.0 207.89543 341.89542 207.0 343.0 207.0L378.0 207.0C379.10458 207.0 380.0 207.89543 380.0 209.0Z" fill-rule="nonzero"/><path stroke="#000000" stroke-width="2.0" stroke-linecap="butt" stroke-opacity="0.0" clip-path="url(#id_0)" d="M440.0 300.0L401.0 300.0L401.0 172.0C401.0 170.89543 401.89542 170.0 403.0 170.0L438.0 170.0C439.10458 170.0 440.0 170.89543 440.0 172.0Z" fill-rule="nonzero"/><path fill="#4527a4" clip-path="url(#id_0)" d="M440.0 300.0L401.0 300.0L401.0 172.0C401.0 170.89543 401.89542 170.0 403.0 170.0L438.0 170.0C439.10458 170.0 440.0 170.89543 440.0 172.0Z" fill-rule="nonzero"/><path stroke="#000000" stroke-width="2.0" stroke-linecap="butt" stroke-opacity="0.0" clip-path="url(#id_0)" d="M500.0 300.0L461.0 300.0L461.0 128.0C461.0 126.89543 461.89542 126.0 463.0 126.0L498.0 126.0C499.10458 126.0 500.0 126.89543 500.0 128.0Z" fill-rule="nonzero"/><path fill="#4527a4" clip-path="url(#id_0)" d="M500.0 300.0L461.0 300.0L461.0 128.0C461.0 126.89543 461.89542 126.0 463.0 126.0L498.0 126.0C499.10458 126.0 500.0 126.89543 500.0 128.0Z" fill-rule="nonzero"/><path stroke="#000000" stroke-width="2.0" stroke-linecap="butt" stroke-opacity="0.0" clip-path="url(#id_0)" d="M561.0 300.0L522.0 300.0L522.0 72.0C522.0 70.89543 522.89545 70.0 524.0 70.0L559.0 70.0C560.10455 70.0 561.0 70.89543 561.0 72.0Z" fill-rule="nonzero"/><path fill="#4527a4" clip-path="url(#id_0)" d="M561.0 300.0L522.0 300.0L522.0 72.0C522.0 70.89543 522.89545 70.0 524.0 70.0L559.0 70.0C560.10455 70.0 561.0 70.89543 561.0 72.0Z" fill-rule="nonzero"/><path fill="#000000" d="M319.70312 345.46564L319.70312 347.2469L320.51562 347.2469Q320.95312 347.2469 321.125 347.41876Q321.3125 347.575 321.3125 347.85626Q321.3125 348.1219 321.125 348.29376Q320.95312 348.45 320.51562 348.45L317.70312 348.45Q317.26562 348.45 317.07812 348.29376Q316.90625 348.1219 316.90625 347.84064Q316.90625 347.575 317.07812 347.41876Q317.26562 347.2469 317.70312 347.2469L318.5 347.2469L318.5 345.46564L316.51562 342.54376Q316.125 342.54376 315.9375 342.3875Q315.75 342.21564 315.75 341.95Q315.75 341.66876 315.9375 341.5125Q316.125 341.34064 316.5625 341.34064L317.64062 341.34064Q318.07812 341.34064 318.26562 341.5125Q318.45312 341.66876 318.45312 341.95Q318.45312 342.35626 317.96875 342.54376L319.10938 344.23126L320.21875 342.54376Q319.95312 342.45 319.84375 342.29376Q319.73438 342.1375 319.73438 341.95Q319.73438 341.66876 319.92188 341.5125Q320.10938 341.34064 320.54688 341.34064L321.67188 341.34064Q322.10938 341.34064 322.28125 341.5125Q322.46875 341.66876 322.46875 341.95Q322.46875 342.21564 322.28125 342.3875Q322.09375 342.54376 321.67188 342.54376L319.70312 345.46564ZM329.10938 346.40314L324.1875 346.40314Q324.375 346.8719 324.84375 347.15314Q325.32812 347.4344 326.14062 347.4344Q326.8125 347.4344 327.92188 347.15314Q328.375 347.04376 328.54688 347.04376Q328.79688 347.04376 328.95312 347.21564Q329.125 347.3719 329.125 347.6375Q329.125 347.8719 328.95312 348.02814Q328.71875 348.2469 327.79688 348.45Q326.89062 348.6375 326.0625 348.6375Q324.60938 348.6375 323.75 347.825Q322.89062 347.0125 322.89062 345.825Q322.89062 344.5594 323.8125 343.7625Q324.75 342.96564 325.96875 342.96564Q326.70312 342.96564 327.3125 343.23126Q327.9375 343.48126 328.23438 343.77814Q328.65625 344.21564 328.92188 344.85626Q329.10938 345.3094 329.10938 345.8875L329.10938 346.40314ZM327.78125 345.2Q327.51562 344.6844 327.0625 344.4344Q326.625 344.16876 326.0 344.16876Q325.39062 344.16876 324.9375 344.4344Q324.5 344.6844 324.21875 345.2L327.78125 345.2ZM334.1875 348.45L334.1875 348.16876Q333.73438 348.40314 333.1875 348.52814Q332.64062 348.65314 332.20312 348.65314Q331.23438 348.65314 330.625 348.1375Q330.01562 347.6219 330.01562 346.9969Q330.01562 346.2469 330.78125 345.60626Q331.5625 344.95 332.92188 344.95Q333.46875 344.95 334.1875 345.075L334.1875 344.77814Q334.1875 344.5125 333.95312 344.34064Q333.71875 344.16876 333.0625 344.16876Q332.53125 344.16876 331.6875 344.3875Q331.375 344.46564 331.1875 344.46564Q330.95312 344.46564 330.78125 344.29376Q330.625 344.10626 330.625 343.84064Q330.625 343.6844 330.67188 343.575Q330.73438 343.46564 330.84375 343.40314Q330.95312 343.34064 331.28125 343.2469Q331.73438 343.1219 332.1875 343.04376Q332.65625 342.96564 333.03125 342.96564Q334.14062 342.96564 334.76562 343.45Q335.39062 343.9344 335.39062 344.77814L335.39062 347.2469L335.59375 347.2469Q336.01562 347.2469 336.20312 347.41876Q336.39062 347.575 336.39062 347.85626Q336.39062 348.1219 336.20312 348.29376Q336.01562 348.45 335.59375 348.45L334.1875 348.45ZM334.1875 346.29376Q333.46875 346.15314 332.85938 346.15314Q332.125 346.15314 331.59375 346.5125Q331.26562 346.7469 331.26562 346.98126Q331.26562 347.15314 331.42188 347.2469Q331.71875 347.45 332.21875 347.45Q332.65625 347.45 333.20312 347.27814Q333.75 347.10626 334.1875 346.8094L334.1875 346.29376ZM339.85938 343.1219L339.85938 343.8719Q340.60938 343.34064 341.04688 343.15314Q341.48438 342.96564 341.85938 342.96564Q342.45312 342.96564 343.0 343.40314Q343.375 343.7 343.375 343.9969Q343.375 344.2625 343.1875 344.45Q343.01562 344.6219 342.76562 344.6219Q342.54688 344.6219 342.29688 344.40314Q342.04688 344.16876 341.85938 344.16876Q341.60938 344.16876 341.10938 344.4969Q340.60938 344.8094 339.85938 345.4344L339.85938 347.2469L341.5625 347.2469Q342.0 347.2469 342.17188 347.41876Q342.35938 347.575 342.35938 347.85626Q342.35938 348.1219 342.17188 348.29376Q342.0 348.45 341.5625 348.45L337.9375 348.45Q337.5 348.45 337.3125 348.29376Q337.14062 348.1219 337.14062 347.84064Q337.14062 347.575 337.3125 347.41876Q337.5 347.2469 337.9375 347.2469L338.65625 347.2469L338.65625 344.325L338.21875 344.325Q337.78125 344.325 337.59375 344.16876Q337.42188 343.9969 337.42188 343.73126Q337.42188 343.46564 337.59375 343.29376Q337.78125 343.1219 338.21875 343.1219L339.85938 343.1219Z" fill-rule="nonzero"/><path fill="#000000" d="M23.768763 269.28125L27.346888 269.28125L27.346888 268.84375Q27.346888 268.40625 27.518763 268.23438Q27.675013 268.04688 27.956263 268.04688Q28.221888 268.04688 28.393763 268.23438Q28.550013 268.40625 28.550013 268.84375L28.550013 270.42188Q28.550013 270.85938 28.393763 271.03125Q28.221888 271.21875 27.940638 271.21875Q27.675013 271.21875 27.518763 271.03125Q27.346888 270.85938 27.346888 270.48438L22.643763 270.48438Q22.612513 270.79688 22.456263 270.96875Q22.284388 271.125 22.050013 271.125Q21.768763 271.125 21.612513 270.9375Q21.440638 270.75 21.440638 270.3125L21.440638 269.0L25.065638 267.35938L21.440638 265.75L21.440638 264.42188Q21.440638 263.98438 21.612513 263.8125Q21.768763 263.625 22.050013 263.625Q22.284388 263.625 22.456263 263.79688Q22.612513 263.95312 22.643763 264.26562L27.346888 264.26562Q27.346888 263.875 27.518763 263.70312Q27.690638 263.51562 27.956263 263.51562Q28.221888 263.51562 28.393763 263.70312Q28.550013 263.89062 28.550013 264.3125L28.550013 265.90625Q28.550013 266.32812 28.393763 266.51562Q28.221888 266.70312 27.940638 266.70312Q27.675013 266.70312 27.518763 266.51562Q27.346888 266.32812 27.346888 265.90625L27.346888 265.46875L23.768763 265.46875L26.862513 266.84375L26.862513 267.875L23.768763 269.28125ZM28.550013 259.3125L28.268763 259.3125Q28.503138 259.76562 28.628138 260.3125Q28.753138 260.85938 28.753138 261.29688Q28.753138 262.26562 28.237513 262.875Q27.721888 263.48438 27.096888 263.48438Q26.346888 263.48438 25.706263 262.71875Q25.050013 261.9375 25.050013 260.57812Q25.050013 260.03125 25.175013 259.3125L24.878138 259.3125Q24.612513 259.3125 24.440638 259.54688Q24.268763 259.78125 24.268763 260.4375Q24.268763 260.96875 24.487513 261.8125Q24.565638 262.125 24.565638 262.3125Q24.565638 262.54688 24.393763 262.71875Q24.206263 262.875 23.940638 262.875Q23.784388 262.875 23.675013 262.82812Q23.565638 262.76562 23.503138 262.65625Q23.440638 262.54688 23.346888 262.21875Q23.221888 261.76562 23.143763 261.3125Q23.065638 260.84375 23.065638 260.46875Q23.065638 259.35938 23.550013 258.73438Q24.034388 258.10938 24.878138 258.10938L27.346888 258.10938L27.346888 257.90625Q27.346888 257.48438 27.518763 257.29688Q27.675013 257.10938 27.956263 257.10938Q28.221888 257.10938 28.393763 257.29688Q28.550013 257.48438 28.550013 257.90625L28.550013 259.3125ZM26.393763 259.3125Q26.253138 260.03125 26.253138 260.64062Q26.253138 261.375 26.612513 261.90625Q26.846888 262.23438 27.081263 262.23438Q27.253138 262.23438 27.346888 262.07812Q27.550013 261.78125 27.550013 261.28125Q27.550013 260.84375 27.378138 260.29688Q27.206263 259.75 26.909388 259.3125L26.393763 259.3125ZM23.221888 253.64062L23.971888 253.64062Q23.440638 252.89062 23.253138 252.45312Q23.065638 252.01562 23.065638 251.64062Q23.065638 251.04688 23.503138 250.5Q23.800013 250.125 24.096888 250.125Q24.362513 250.125 24.550013 250.3125Q24.721888 250.48438 24.721888 250.73438Q24.721888 250.95312 24.503138 251.20312Q24.268763 251.45312 24.268763 251.64062Q24.268763 251.89062 24.596888 252.39062Q24.909388 252.89062 25.534388 253.64062L27.346888 253.64062L27.346888 251.9375Q27.346888 251.5 27.518763 251.32812Q27.675013 251.14062 27.956263 251.14062Q28.221888 251.14062 28.393763 251.32812Q28.550013 251.5 28.550013 251.9375L28.550013 255.5625Q28.550013 256.0 28.393763 256.1875Q28.221888 256.35938 27.940638 256.35938Q27.675013 256.35938 27.518763 256.1875Q27.346888 256.0 27.346888 255.5625L27.346888 254.84375L24.425013 254.84375L24.425013 255.28125Q24.425013 255.71875 24.268763 255.90625Q24.096888 256.07812 23.831263 256.07812Q23.565638 256.07812 23.393763 255.90625Q23.221888 255.71875 23.221888 255.28125L23.221888 253.64062ZM26.550013 247.39062L28.550013 247.39062L28.550013 248.79688Q28.550013 249.21875 28.393763 249.40625Q28.221888 249.59375 27.940638 249.59375Q27.675013 249.59375 27.518763 249.40625Q27.346888 249.21875 27.346888 248.79688L27.346888 248.59375L22.143763 248.59375L22.143763 248.79688Q22.143763 249.21875 21.987513 249.40625Q21.815638 249.59375 21.550013 249.59375Q21.284388 249.59375 21.128138 249.40625Q20.956263 249.21875 20.956263 248.79688L20.956263 247.39062L25.003138 247.39062L24.237513 246.45312Q23.987513 246.59375 23.831263 246.59375Q23.565638 246.59375 23.393763 246.42188Q23.221888 246.23438 23.221888 245.79688L23.221888 244.42188Q23.221888 244.0 23.393763 243.8125Q23.565638 243.625 23.831263 243.625Q24.096888 243.625 24.268763 243.8125Q24.425013 244.0 24.425013 244.42188L24.425013 244.76562L25.612513 246.21875L27.346888 244.25L27.346888 243.90625Q27.346888 243.46875 27.518763 243.29688Q27.675013 243.10938 27.956263 243.10938Q28.221888 243.10938 28.393763 243.29688Q28.550013 243.46875 28.550013 243.90625L28.550013 245.28125Q28.550013 245.71875 28.393763 245.90625Q28.221888 246.09375 27.940638 246.09375Q27.721888 246.09375 27.487513 245.89062L26.362513 247.15625L26.550013 247.39062ZM26.503138 236.39062L26.503138 241.3125Q26.971888 241.125 27.253138 240.65625Q27.534388 240.17188 27.534388 239.35938Q27.534388 238.6875 27.253138 237.57812Q27.143763 237.125 27.143763 236.95312Q27.143763 236.70312 27.315638 236.54688Q27.471888 236.375 27.737513 236.375Q27.971888 236.375 28.128138 236.54688Q28.346888 236.78125 28.550013 237.70312Q28.737513 238.60938 28.737513 239.4375Q28.737513 240.89062 27.925013 241.75Q27.112513 242.60938 25.925013 242.60938Q24.659388 242.60938 23.862513 241.6875Q23.065638 240.75 23.065638 239.53125Q23.065638 238.79688 23.331263 238.1875Q23.581263 237.5625 23.878138 237.26562Q24.315638 236.84375 24.956263 236.57812Q25.409388 236.39062 25.987513 236.39062L26.503138 236.39062ZM25.300013 237.71875Q24.784388 237.98438 24.534388 238.4375Q24.268763 238.875 24.268763 239.5Q24.268763 240.10938 24.534388 240.5625Q24.784388 241.0 25.300013 241.28125L25.300013 237.71875ZM24.425013 232.6875L26.831263 232.6875Q27.221888 232.6875 27.346888 232.53125Q27.534388 232.29688 27.534388 231.65625Q27.534388 230.73438 27.143763 229.95312Q27.003138 229.65625 27.003138 229.48438Q27.003138 229.25 27.175013 229.07812Q27.346888 228.90625 27.596888 228.90625Q27.831263 228.90625 28.003138 229.09375Q28.284388 229.39062 28.518763 230.23438Q28.737513 231.07812 28.737513 231.65625Q28.737513 232.78125 28.253138 233.34375Q27.768763 233.89062 27.065638 233.89062L24.425013 233.89062L24.425013 234.32812Q24.425013 234.76562 24.268763 234.95312Q24.096888 235.125 23.831263 235.125Q23.565638 235.125 23.393763 234.95312Q23.221888 234.76562 23.221888 234.32812L23.221888 233.89062L22.143763 233.89062Q21.706263 233.89062 21.534388 233.73438Q21.346888 233.5625 21.346888 233.29688Q21.346888 233.03125 21.534388 232.85938Q21.706263 232.6875 22.143763 232.6875L23.221888 232.6875L23.221888 230.46875Q23.221888 230.04688 23.393763 229.85938Q23.565638 229.67188 23.831263 229.67188Q24.096888 229.67188 24.268763 229.85938Q24.425013 230.04688 24.425013 230.46875L24.425013 232.6875ZM25.831263 219.64062L27.346888 219.64062L27.346888 219.20312Q27.346888 218.76562 27.518763 218.59375Q27.675013 218.40625 27.956263 218.40625Q28.221888 218.40625 28.393763 218.59375Q28.550013 218.76562 28.550013 219.20312L28.550013 221.03125Q28.550013 221.45312 28.393763 221.64062Q28.221888 221.82812 27.940638 221.82812Q27.675013 221.82812 27.518763 221.64062Q27.346888 221.45312 27.346888 221.03125L27.346888 220.84375L22.643763 220.84375L22.643763 221.03125Q22.643763 221.45312 22.487513 221.64062Q22.315638 221.82812 22.050013 221.82812Q21.768763 221.82812 21.612513 221.64062Q21.440638 221.45312 21.440638 221.03125L21.440638 218.3125Q21.440638 217.03125 22.081263 216.34375Q22.706263 215.64062 23.612513 215.64062Q24.175013 215.64062 24.643763 215.96875Q25.096888 216.29688 25.456263 216.95312Q25.784388 216.57812 26.300013 216.14062Q26.643763 215.875 27.346888 215.40625Q27.346888 214.95312 27.440638 214.8125Q27.628138 214.54688 27.956263 214.54688Q28.221888 214.54688 28.393763 214.73438Q28.550013 214.90625 28.550013 215.34375L28.550013 216.03125Q26.300013 217.48438 25.831263 218.45312L25.831263 219.64062ZM24.628138 219.64062L24.628138 218.70312Q24.628138 218.17188 24.471888 217.76562Q24.268763 217.21875 24.034388 217.03125Q23.800013 216.84375 23.565638 216.84375Q23.221888 216.84375 22.940638 217.20312Q22.643763 217.5625 22.643763 218.26562L22.643763 219.64062L24.628138 219.64062ZM26.503138 208.39062L26.503138 213.3125Q26.971888 213.125 27.253138 212.65625Q27.534388 212.17188 27.534388 211.35938Q27.534388 210.6875 27.253138 209.57812Q27.143763 209.125 27.143763 208.95312Q27.143763 208.70312 27.315638 208.54688Q27.471888 208.375 27.737513 208.375Q27.971888 208.375 28.128138 208.54688Q28.346888 208.78125 28.550013 209.70312Q28.737513 210.60938 28.737513 211.4375Q28.737513 212.89062 27.925013 213.75Q27.112513 214.60938 25.925013 214.60938Q24.659388 214.60938 23.862513 213.6875Q23.065638 212.75 23.065638 211.53125Q23.065638 210.79688 23.331263 210.1875Q23.581263 209.5625 23.878138 209.26562Q24.315638 208.84375 24.956263 208.57812Q25.409388 208.39062 25.987513 208.39062L26.503138 208.39062ZM25.300013 209.71875Q24.784388 209.98438 24.534388 210.4375Q24.268763 210.875 24.268763 211.5Q24.268763 212.10938 24.534388 212.5625Q24.784388 213.0 25.300013 213.28125L25.300013 209.71875ZM27.096888 204.39062L24.425013 203.09375Q24.425013 203.57812 24.346888 203.70312Q24.159388 204.0 23.831263 204.0Q23.565638 204.0 23.393763 203.82812Q23.221888 203.64062 23.221888 203.20312L23.221888 201.54688Q23.221888 201.125 23.393763 200.9375Q23.565638 200.75 23.831263 200.75Q24.096888 200.75 24.268763 200.9375Q24.425013 201.125 24.425013 201.54688L24.425013 201.75L28.550013 203.76562L28.550013 205.01562L24.425013 207.03125L24.425013 207.20312Q24.425013 207.625 24.268763 207.8125Q24.096888 208.0 23.831263 208.0Q23.565638 208.0 23.393763 207.8125Q23.221888 207.625 23.221888 207.20312L23.221888 205.57812Q23.221888 205.15625 23.393763 204.96875Q23.565638 204.78125 23.831263 204.78125Q24.159388 204.78125 24.346888 205.0625Q24.425013 205.20312 24.425013 205.70312L27.096888 204.39062ZM26.503138 194.39062L26.503138 199.3125Q26.971888 199.125 27.253138 198.65625Q27.534388 198.17188 27.534388 197.35938Q27.534388 196.6875 27.253138 195.57812Q27.143763 195.125 27.143763 194.95312Q27.143763 194.70312 27.315638 194.54688Q27.471888 194.375 27.737513 194.375Q27.971888 194.375 28.128138 194.54688Q28.346888 194.78125 28.550013 195.70312Q28.737513 196.60938 28.737513 197.4375Q28.737513 198.89062 27.925013 199.75Q27.112513 200.60938 25.925013 200.60938Q24.659388 200.60938 23.862513 199.6875Q23.065638 198.75 23.065638 197.53125Q23.065638 196.79688 23.331263 196.1875Q23.581263 195.5625 23.878138 195.26562Q24.315638 194.84375 24.956263 194.57812Q25.409388 194.39062 25.987513 194.39062L26.503138 194.39062ZM25.300013 195.71875Q24.784388 195.98438 24.534388 196.4375Q24.268763 196.875 24.268763 197.5Q24.268763 198.10938 24.534388 198.5625Q24.784388 199.0 25.300013 199.28125L25.300013 195.71875ZM23.221888 191.60938L23.628138 191.60938Q23.346888 191.28125 23.206263 190.89062Q23.065638 190.5 23.065638 190.03125Q23.065638 188.96875 23.737513 188.34375Q24.253138 187.85938 25.112513 187.85938L27.346888 187.85938Q27.346888 187.46875 27.518763 187.29688Q27.675013 187.10938 27.956263 187.10938Q28.221888 187.10938 28.393763 187.29688Q28.550013 187.48438 28.550013 187.90625L28.550013 189.0Q28.550013 189.42188 28.393763 189.60938Q28.221888 189.79688 27.940638 189.79688Q27.675013 189.79688 27.518763 189.625Q27.346888 189.4375 27.346888 189.04688L25.081263 189.04688Q24.690638 189.04688 24.503138 189.26562Q24.268763 189.54688 24.268763 190.09375Q24.268763 190.5 24.440638 190.82812Q24.596888 191.14062 25.112513 191.60938L27.346888 191.60938Q27.346888 191.15625 27.440638 191.01562Q27.612513 190.73438 27.956263 190.73438Q28.221888 190.73438 28.393763 190.92188Q28.550013 191.09375 28.550013 191.53125L28.550013 192.89062Q28.550013 193.32812 28.393763 193.51562Q28.221888 193.70312 27.940638 193.70312Q27.612513 193.70312 27.440638 193.42188Q27.346888 193.28125 27.346888 192.8125L24.425013 192.8125Q24.425013 193.20312 24.268763 193.39062Q24.096888 193.5625 23.831263 193.5625Q23.565638 193.5625 23.393763 193.375Q23.221888 193.1875 23.221888 192.75L23.221888 191.60938ZM23.221888 180.84375L27.346888 180.84375Q27.346888 180.46875 27.518763 180.29688Q27.690638 180.10938 27.956263 180.10938Q28.221888 180.10938 28.393763 180.29688Q28.550013 180.46875 28.550013 180.90625L28.550013 182.04688L28.268763 182.04688Q28.503138 182.5625 28.612513 183.03125Q28.737513 183.5 28.737513 183.92188Q28.737513 184.51562 28.487513 184.95312Q28.237513 185.375 27.800013 185.64062Q27.487513 185.8125 27.018763 185.8125L24.425013 185.8125L24.425013 186.01562Q24.425013 186.45312 24.268763 186.64062Q24.096888 186.82812 23.831263 186.82812Q23.565638 186.82812 23.393763 186.64062Q23.221888 186.45312 23.221888 186.01562L23.221888 184.60938L26.800013 184.60938Q27.190638 184.60938 27.362513 184.4375Q27.534388 184.25 27.534388 183.85938Q27.534388 183.5 27.393763 183.07812Q27.253138 182.65625 26.878138 182.04688L24.425013 182.04688L24.425013 182.48438Q24.425013 182.92188 24.268763 183.10938Q24.096888 183.28125 23.831263 183.28125Q23.565638 183.28125 23.393763 183.10938Q23.221888 182.92188 23.221888 182.48438L23.221888 180.84375ZM26.503138 173.39062L26.503138 178.3125Q26.971888 178.125 27.253138 177.65625Q27.534388 177.17188 27.534388 176.35938Q27.534388 175.6875 27.253138 174.57812Q27.143763 174.125 27.143763 173.95312Q27.143763 173.70312 27.315638 173.54688Q27.471888 173.375 27.737513 173.375Q27.971888 173.375 28.128138 173.54688Q28.346888 173.78125 28.550013 174.70312Q28.737513 175.60938 28.737513 176.4375Q28.737513 177.89062 27.925013 178.75Q27.112513 179.60938 25.925013 179.60938Q24.659388 179.60938 23.862513 178.6875Q23.065638 177.75 23.065638 176.53125Q23.065638 175.79688 23.331263 175.1875Q23.581263 174.5625 23.878138 174.26562Q24.315638 173.84375 24.956263 173.57812Q25.409388 173.39062 25.987513 173.39062L26.503138 173.39062ZM25.300013 174.71875Q24.784388 174.98438 24.534388 175.4375Q24.268763 175.875 24.268763 176.5Q24.268763 177.10938 24.534388 177.5625Q24.784388 178.0 25.300013 178.28125L25.300013 174.71875ZM20.956263 161.96875L22.221888 161.96875L22.221888 163.39062L20.956263 163.39062L20.956263 161.96875ZM23.221888 161.79688L27.346888 161.79688L27.346888 160.35938Q27.346888 159.92188 27.518763 159.75Q27.675013 159.5625 27.956263 159.5625Q28.221888 159.5625 28.393763 159.75Q28.550013 159.92188 28.550013 160.35938L28.550013 164.45312Q28.550013 164.875 28.393763 165.0625Q28.221888 165.25 27.940638 165.25Q27.675013 165.25 27.518763 165.0625Q27.346888 164.875 27.346888 164.45312L27.346888 163.0L24.425013 163.0L24.425013 163.96875Q24.425013 164.40625 24.268763 164.59375Q24.096888 164.78125 23.831263 164.78125Q23.565638 164.78125 23.393763 164.59375Q23.221888 164.40625 23.221888 163.96875L23.221888 161.79688ZM23.221888 156.60938L23.628138 156.60938Q23.346888 156.28125 23.206263 155.89062Q23.065638 155.5 23.065638 155.03125Q23.065638 153.96875 23.737513 153.34375Q24.253138 152.85938 25.112513 152.85938L27.346888 152.85938Q27.346888 152.46875 27.518763 152.29688Q27.675013 152.10938 27.956263 152.10938Q28.221888 152.10938 28.393763 152.29688Q28.550013 152.48438 28.550013 152.90625L28.550013 154.0Q28.550013 154.42188 28.393763 154.60938Q28.221888 154.79688 27.940638 154.79688Q27.675013 154.79688 27.518763 154.625Q27.346888 154.4375 27.346888 154.04688L25.081263 154.04688Q24.690638 154.04688 24.503138 154.26562Q24.268763 154.54688 24.268763 155.09375Q24.268763 155.5 24.440638 155.82812Q24.596888 156.14062 25.112513 156.60938L27.346888 156.60938Q27.346888 156.15625 27.440638 156.01562Q27.612513 155.73438 27.956263 155.73438Q28.221888 155.73438 28.393763 155.92188Q28.550013 156.09375 28.550013 156.53125L28.550013 157.89062Q28.550013 158.32812 28.393763 158.51562Q28.221888 158.70312 27.940638 158.70312Q27.612513 158.70312 27.440638 158.42188Q27.346888 158.28125 27.346888 157.8125L24.425013 157.8125Q24.425013 158.20312 24.268763 158.39062Q24.096888 158.5625 23.831263 158.5625Q23.565638 158.5625 23.393763 158.375Q23.221888 158.1875 23.221888 157.75L23.221888 156.60938ZM27.346888 143.84375L22.643763 143.84375L22.643763 144.03125Q22.643763 144.46875 22.487513 144.65625Q22.315638 144.84375 22.050013 144.84375Q21.768763 144.84375 21.612513 144.65625Q21.440638 144.46875 21.440638 144.03125L21.440638 141.03125Q21.440638 139.95312 22.050013 139.29688Q22.643763 138.64062 23.471888 138.64062Q23.862513 138.64062 24.206263 138.79688Q24.550013 138.9375 24.846888 139.25Q25.190638 138.6875 25.643763 138.40625Q26.096888 138.10938 26.675013 138.10938Q27.128138 138.10938 27.518763 138.3125Q27.815638 138.46875 27.987513 138.6875Q28.237513 139.0 28.393763 139.4375Q28.550013 139.85938 28.550013 140.51562L28.550013 144.03125Q28.550013 144.46875 28.393763 144.65625Q28.221888 144.84375 27.940638 144.84375Q27.675013 144.84375 27.518763 144.65625Q27.346888 144.46875 27.346888 144.03125L27.346888 143.84375ZM24.393763 142.65625L24.393763 141.32812Q24.393763 140.625 24.034388 140.15625Q23.800013 139.84375 23.440638 139.84375Q23.128138 139.84375 22.893763 140.14062Q22.643763 140.4375 22.643763 141.07812L22.643763 142.65625L24.393763 142.65625ZM27.346888 142.65625L27.346888 140.57812Q27.346888 139.84375 27.128138 139.54688Q26.971888 139.3125 26.659388 139.3125Q26.300013 139.3125 25.956263 139.76562Q25.596888 140.21875 25.596888 141.0625L25.596888 142.65625L27.346888 142.65625ZM20.956263 133.96875L22.221888 133.96875L22.221888 135.39062L20.956263 135.39062L20.956263 133.96875ZM23.221888 133.79688L27.346888 133.79688L27.346888 132.35938Q27.346888 131.92188 27.518763 131.75Q27.675013 131.5625 27.956263 131.5625Q28.221888 131.5625 28.393763 131.75Q28.550013 131.92188 28.550013 132.35938L28.550013 136.45312Q28.550013 136.875 28.393763 137.0625Q28.221888 137.25 27.940638 137.25Q27.675013 137.25 27.518763 137.0625Q27.346888 136.875 27.346888 136.45312L27.346888 135.0L24.425013 135.0L24.425013 135.96875Q24.425013 136.40625 24.268763 136.59375Q24.096888 136.78125 23.831263 136.78125Q23.565638 136.78125 23.393763 136.59375Q23.221888 136.40625 23.221888 135.96875L23.221888 133.79688ZM20.956263 126.796875L27.346888 126.796875L27.346888 125.359375Q27.346888 124.921875 27.518763 124.734375Q27.675013 124.546875 27.956263 124.546875Q28.221888 124.546875 28.393763 124.734375Q28.550013 124.921875 28.550013 125.359375L28.550013 129.4375Q28.550013 129.875 28.393763 130.0625Q28.221888 130.25 27.940638 130.25Q27.675013 130.25 27.518763 130.0625Q27.346888 129.875 27.346888 129.4375L27.346888 128.0L22.143763 128.0L22.143763 128.96875Q22.143763 129.39062 21.987513 129.57812Q21.815638 129.76562 21.550013 129.76562Q21.284388 129.76562 21.128138 129.59375Q20.956263 129.40625 20.956263 128.96875L20.956263 126.796875ZM20.956263 119.796875L27.346888 119.796875L27.346888 118.359375Q27.346888 117.921875 27.518763 117.734375Q27.675013 117.546875 27.956263 117.546875Q28.221888 117.546875 28.393763 117.734375Q28.550013 117.921875 28.550013 118.359375L28.550013 122.4375Q28.550013 122.875 28.393763 123.0625Q28.221888 123.25 27.940638 123.25Q27.675013 123.25 27.518763 123.0625Q27.346888 122.875 27.346888 122.4375L27.346888 121.0L22.143763 121.0L22.143763 121.96875Q22.143763 122.390625 21.987513 122.578125Q21.815638 122.765625 21.550013 122.765625Q21.284388 122.765625 21.128138 122.59375Q20.956263 122.40625 20.956263 121.96875L20.956263 119.796875ZM20.956263 112.96875L22.221888 112.96875L22.221888 114.390625L20.956263 114.390625L20.956263 112.96875ZM23.221888 112.796875L27.346888 112.796875L27.346888 111.359375Q27.346888 110.921875 27.518763 110.75Q27.675013 110.5625 27.956263 110.5625Q28.221888 110.5625 28.393763 110.75Q28.550013 110.921875 28.550013 111.359375L28.550013 115.453125Q28.550013 115.875 28.393763 116.0625Q28.221888 116.25 27.940638 116.25Q27.675013 116.25 27.518763 116.0625Q27.346888 115.875 27.346888 115.453125L27.346888 114.0L24.425013 114.0L24.425013 114.96875Q24.425013 115.40625 24.268763 115.59375Q24.096888 115.78125 23.831263 115.78125Q23.565638 115.78125 23.393763 115.59375Q23.221888 115.40625 23.221888 114.96875L23.221888 112.796875ZM25.987513 103.28125Q26.675013 103.28125 27.331263 103.671875Q27.971888 104.046875 28.362513 104.8125Q28.737513 105.5625 28.737513 106.390625Q28.737513 107.203125 28.362513 107.953125Q27.987513 108.703125 27.346888 109.109375Q26.690638 109.5 25.971888 109.5Q25.253138 109.5 24.565638 109.109375Q23.862513 108.703125 23.471888 107.953125Q23.065638 107.203125 23.065638 106.390625Q23.065638 105.5625 23.471888 104.8125Q23.878138 104.046875 24.581263 103.671875Q25.268763 103.28125 25.987513 103.28125ZM25.987513 104.484375Q25.409388 104.484375 24.925013 104.890625Q24.268763 105.46875 24.268763 106.390625Q24.268763 107.203125 24.800013 107.75Q25.315638 108.296875 26.003138 108.296875Q26.565638 108.296875 27.050013 107.75Q27.534388 107.1875 27.534388 106.390625Q27.534388 105.578125 27.050013 105.03125Q26.565638 104.484375 25.987513 104.484375ZM23.221888 100.609375L23.628138 100.609375Q23.346888 100.28125 23.206263 99.890625Q23.065638 99.5 23.065638 99.03125Q23.065638 97.96875 23.737513 97.34375Q24.253138 96.859375 25.112513 96.859375L27.346888 96.859375Q27.346888 96.46875 27.518763 96.296875Q27.675013 96.109375 27.956263 96.109375Q28.221888 96.109375 28.393763 96.296875Q28.550013 96.484375 28.550013 96.90625L28.550013 98.0Q28.550013 98.421875 28.393763 98.609375Q28.221888 98.796875 27.940638 98.796875Q27.675013 98.796875 27.518763 98.625Q27.346888 98.4375 27.346888 98.046875L25.081263 98.046875Q24.690638 98.046875 24.503138 98.265625Q24.268763 98.546875 24.268763 99.09375Q24.268763 99.5 24.440638 99.828125Q24.596888 100.140625 25.112513 100.609375L27.346888 100.609375Q27.346888 100.15625 27.440638 100.015625Q27.612513 99.734375 27.956263 99.734375Q28.221888 99.734375 28.393763 99.921875Q28.550013 100.09375 28.550013 100.53125L28.550013 101.890625Q28.550013 102.328125 28.393763 102.515625Q28.221888 102.703125 27.940638 102.703125Q27.612513 102.703125 27.440638 102.421875Q27.346888 102.28125 27.346888 101.8125L24.425013 101.8125Q24.425013 102.203125 24.268763 102.390625Q24.096888 102.5625 23.831263 102.5625Q23.565638 102.5625 23.393763 102.375Q23.221888 102.1875 23.221888 101.75L23.221888 100.609375ZM22.643763 82.65625L26.050013 82.65625Q27.159388 82.65625 27.940638 83.453125Q28.721888 84.25 28.721888 85.375Q28.721888 85.9375 28.534388 86.421875Q28.331263 86.90625 27.956263 87.296875Q27.565638 87.6875 27.159388 87.90625Q26.737513 88.125 26.050013 88.125L22.643763 88.125Q22.643763 88.5 22.487513 88.6875Q22.315638 88.875 22.050013 88.875Q21.768763 88.875 21.612513 88.6875Q21.440638 88.5 21.440638 88.0625L21.440638 86.484375Q21.440638 86.0625 21.612513 85.875Q21.768763 85.6875 22.050013 85.6875Q22.315638 85.6875 22.487513 85.875Q22.643763 86.0625 22.643763 86.484375L22.643763 86.921875L26.159388 86.921875Q26.690638 86.921875 27.112513 86.484375Q27.518763 86.03125 27.518763 85.390625Q27.518763 84.96875 27.331263 84.609375Q27.128138 84.234375 26.737513 84.0Q26.503138 83.859375 26.159388 83.859375L22.643763 83.859375L22.643763 84.28125Q22.643763 84.71875 22.487513 84.90625Q22.315638 85.09375 22.050013 85.09375Q21.768763 85.09375 21.612513 84.90625Q21.440638 84.71875 21.440638 84.28125L21.440638 82.71875Q21.440638 82.28125 21.612513 82.09375Q21.768763 81.90625 22.050013 81.90625Q22.315638 81.90625 22.487513 82.09375Q22.643763 82.265625 22.643763 82.65625ZM28.237513 80.15625Q28.425013 80.3125 28.487513 80.40625Q28.534388 80.5 28.534388 80.640625Q28.534388 80.921875 28.362513 81.09375Q28.175013 81.25 27.737513 81.25L26.925013 81.25Q26.503138 81.25 26.315638 81.09375Q26.128138 80.921875 26.128138 80.640625Q26.128138 80.4375 26.237513 80.296875Q26.346888 80.140625 26.612513 80.078125Q26.878138 80.0 26.971888 79.90625Q27.143763 79.75 27.331263 79.3125Q27.518763 78.875 27.518763 78.359375Q27.518763 77.5625 27.143763 77.046875Q26.925013 76.71875 26.581263 76.71875Q26.362513 76.71875 26.175013 76.875Q25.971888 77.03125 25.846888 77.390625Q25.753138 77.625 25.596888 78.4375Q25.425013 79.421875 25.175013 79.921875Q24.909388 80.421875 24.440638 80.71875Q23.971888 81.015625 23.425013 81.015625Q22.565638 81.015625 21.925013 80.296875Q21.268763 79.578125 21.268763 78.421875Q21.268763 77.953125 21.378138 77.5625Q21.471888 77.171875 21.675013 76.84375Q21.456263 76.609375 21.456263 76.375Q21.456263 76.109375 21.643763 75.953125Q21.815638 75.78125 22.253138 75.78125L23.159388 75.78125Q23.581263 75.78125 23.768763 75.953125Q23.956263 76.109375 23.956263 76.375Q23.956263 76.59375 23.815638 76.765625Q23.721888 76.890625 23.425013 76.953125Q23.128138 77.015625 22.987513 77.125Q22.768763 77.28125 22.628138 77.625Q22.471888 77.96875 22.471888 78.40625Q22.471888 79.0625 22.768763 79.4375Q23.065638 79.8125 23.393763 79.8125Q23.628138 79.8125 23.831263 79.671875Q24.034388 79.515625 24.159388 79.203125Q24.237513 79.015625 24.425013 78.09375Q24.596888 77.171875 24.815638 76.671875Q25.034388 76.171875 25.503138 75.84375Q25.956263 75.515625 26.596888 75.515625Q27.487513 75.515625 28.018763 76.140625Q28.721888 76.984375 28.721888 78.265625Q28.721888 78.765625 28.596888 79.234375Q28.487513 79.703125 28.237513 80.15625ZM27.346888 74.078125L22.643763 74.078125Q22.643763 74.46875 22.487513 74.65625Q22.315638 74.828125 22.050013 74.828125Q21.768763 74.828125 21.612513 74.640625Q21.440638 74.453125 21.440638 74.03125L21.440638 71.515625Q21.440638 70.921875 21.659388 70.375Q21.878138 69.8125 22.221888 69.46875Q22.471888 69.203125 22.909388 68.9375Q23.346888 68.65625 23.784388 68.515625Q24.206263 68.375 24.846888 68.375L25.409388 68.375Q26.175013 68.375 26.768763 68.640625Q27.346888 68.890625 27.721888 69.3125Q28.096888 69.71875 28.268763 70.09375Q28.550013 70.6875 28.550013 71.609375L28.550013 74.03125Q28.550013 74.453125 28.393763 74.640625Q28.221888 74.828125 27.940638 74.828125Q27.675013 74.828125 27.518763 74.640625Q27.346888 74.453125 27.346888 74.078125ZM27.346888 72.890625L27.346888 71.609375Q27.346888 70.890625 27.143763 70.53125Q26.878138 70.046875 26.456263 69.8125Q26.034388 69.578125 25.378138 69.578125L24.815638 69.578125Q24.237513 69.578125 23.815638 69.796875Q23.143763 70.125 22.893763 70.5625Q22.643763 70.984375 22.643763 71.625L22.643763 72.890625L27.346888 72.890625Z" fill-rule="nonzero"/><path fill="#000000" d="M70.76875 298.9969L70.76875 300.3094Q70.76875 301.48126 70.09688 302.5594Q69.425 303.6219 68.15938 303.6219Q67.44063 303.6219 66.925 303.3094Q66.425 302.98126 65.97188 302.1219Q65.53438 301.2625 65.53438 300.3094L65.53438 298.9969Q65.53438 297.825 66.20625 296.7469Q66.87813 295.66876 68.14375 295.66876Q68.8625 295.66876 69.3625 295.9969Q69.8625 296.3094 70.31563 297.16876Q70.76875 298.02814 70.76875 298.9969ZM69.56563 298.9969Q69.56563 298.0125 69.01875 297.27814Q68.70625 296.8719 68.14375 296.8719Q67.59688 296.8719 67.25313 297.325Q66.7375 297.9969 66.7375 298.9969L66.7375 300.3094Q66.7375 301.29376 67.28438 302.0125Q67.59688 302.41876 68.15938 302.41876Q68.70625 302.41876 69.05 301.98126Q69.56563 301.3094 69.56563 300.3094L69.56563 298.9969Z" fill-rule="nonzero"/><path fill="#000000" d="M60.14375 205.44167L60.14375 206.86354Q60.815624 206.66042 61.346874 206.66042Q62.45625 206.66042 63.190624 207.41042Q63.925 208.16042 63.925 209.36354Q63.925 210.59792 63.175 211.30104Q62.440624 211.98854 60.909374 211.98854Q59.565624 211.98854 58.784374 211.48854Q58.33125 211.19167 58.33125 210.80104Q58.33125 210.56667 58.503124 210.39479Q58.675 210.20729 58.925 210.20729Q59.128124 210.20729 59.3625 210.41042Q59.6125 210.59792 59.878124 210.67604Q60.253124 210.78542 60.83125 210.78542Q61.925 210.78542 62.315624 210.44167Q62.721874 210.09792 62.721874 209.37917Q62.721874 208.66042 62.33125 208.25417Q61.95625 207.84792 61.346874 207.84792Q60.70625 207.84792 59.878124 208.26979Q59.690624 208.37917 59.55 208.37917Q59.284374 208.37917 59.1125 208.19167Q58.940624 208.00417 58.940624 207.70729L58.940624 204.23854L62.6125 204.23854Q63.05 204.23854 63.221874 204.41042Q63.409374 204.56667 63.409374 204.83229Q63.409374 205.09792 63.221874 205.26979Q63.05 205.44167 62.6125 205.44167L60.14375 205.44167ZM70.76875 207.36354L70.76875 208.67604Q70.76875 209.84792 70.09688 210.92604Q69.425 211.98854 68.15938 211.98854Q67.44063 211.98854 66.925 211.67604Q66.425 211.34792 65.97188 210.48854Q65.53438 209.62917 65.53438 208.67604L65.53438 207.36354Q65.53438 206.19167 66.20625 205.11354Q66.87813 204.03542 68.14375 204.03542Q68.8625 204.03542 69.3625 204.36354Q69.8625 204.67604 70.31563 205.53542Q70.76875 206.39479 70.76875 207.36354ZM69.56563 207.36354Q69.56563 206.37917 69.01875 205.64479Q68.70625 205.23854 68.14375 205.23854Q67.59688 205.23854 67.25313 205.69167Q66.7375 206.36354 66.7375 207.36354L66.7375 208.67604Q66.7375 209.66042 67.28438 210.37917Q67.59688 210.78542 68.15938 210.78542Q68.70625 210.78542 69.05 210.34792Q69.56563 209.67604 69.56563 208.67604L69.56563 207.36354Z" fill-rule="nonzero"/><path fill="#000000" d="M54.76875 112.402084L54.76875 118.98021L55.971874 118.98021Q56.409374 118.98021 56.596874 119.152084Q56.784374 119.308334 56.784374 119.589584Q56.784374 119.85521 56.596874 120.027084Q56.409374 120.183334 55.971874 120.183334L52.346874 120.183334Q51.909374 120.183334 51.721874 120.027084Q51.55 119.85521 51.55 119.57396Q51.55 119.308334 51.721874 119.152084Q51.909374 118.98021 52.346874 118.98021L53.565624 118.98021L53.565624 113.964584L52.4875 114.245834Q52.2375 114.32396 52.096874 114.32396Q51.878124 114.32396 51.70625 114.152084Q51.534374 113.964584 51.534374 113.69896Q51.534374 113.44896 51.659374 113.32396Q51.784374 113.183334 52.175 113.07396L54.76875 112.402084ZM63.76875 115.73021L63.76875 117.04271Q63.76875 118.214584 63.096874 119.29271Q62.425 120.35521 61.159374 120.35521Q60.440624 120.35521 59.925 120.04271Q59.425 119.714584 58.971874 118.85521Q58.534374 117.995834 58.534374 117.04271L58.534374 115.73021Q58.534374 114.558334 59.20625 113.48021Q59.878124 112.402084 61.14375 112.402084Q61.8625 112.402084 62.3625 112.73021Q62.8625 113.04271 63.315624 113.902084Q63.76875 114.76146 63.76875 115.73021ZM62.565624 115.73021Q62.565624 114.745834 62.01875 114.01146Q61.70625 113.60521 61.14375 113.60521Q60.596874 113.60521 60.253124 114.058334Q59.7375 114.73021 59.7375 115.73021L59.7375 117.04271Q59.7375 118.027084 60.284374 118.745834Q60.596874 119.152084 61.159374 119.152084Q61.70625 119.152084 62.05 118.714584Q62.565624 118.04271 62.565624 117.04271L62.565624 115.73021ZM70.76875 115.73021L70.76875 117.04271Q70.76875 118.214584 70.09688 119.29271Q69.425 120.35521 68.15938 120.35521Q67.44063 120.35521 66.925 120.04271Q66.425 119.714584 65.97188 118.85521Q65.53438 117.995834 65.53438 117.04271L65.53438 115.73021Q65.53438 114.558334 66.20625 113.48021Q66.87813 112.402084 68.14375 112.402084Q68.8625 112.402084 69.3625 112.73021Q69.8625 113.04271 70.31563 113.902084Q70.76875 114.76146 70.76875 115.73021ZM69.56563 115.73021Q69.56563 114.745834 69.01875 114.01146Q68.70625 113.60521 68.14375 113.60521Q67.59688 113.60521 67.25313 114.058334Q66.7375 114.73021 66.7375 115.73021L66.7375 117.04271Q66.7375 118.027084 67.28438 118.745834Q67.59688 119.152084 68.15938 119.152084Q68.70625 119.152084 69.05 118.714584Q69.56563 118.04271 69.56563 117.04271L69.56563 115.73021Z" fill-rule="nonzero"/><path fill="#000000" d="M54.76875 20.76875L54.76875 27.346874L55.971874 27.346874Q56.409374 27.346874 56.596874 27.51875Q56.784374 27.675 56.784374 27.95625Q56.784374 28.221874 56.596874 28.39375Q56.409374 28.55 55.971874 28.55L52.346874 28.55Q51.909374 28.55 51.721874 28.39375Q51.55 28.221874 51.55 27.940624Q51.55 27.675 51.721874 27.51875Q51.909374 27.346874 52.346874 27.346874L53.565624 27.346874L53.565624 22.33125L52.4875 22.6125Q52.2375 22.690624 52.096874 22.690624Q51.878124 22.690624 51.70625 22.51875Q51.534374 22.33125 51.534374 22.065624Q51.534374 21.815624 51.659374 21.690624Q51.784374 21.55 52.175 21.440624L54.76875 20.76875ZM60.14375 22.175L60.14375 23.596874Q60.815624 23.39375 61.346874 23.39375Q62.45625 23.39375 63.190624 24.14375Q63.925 24.89375 63.925 26.096874Q63.925 27.33125 63.175 28.034374Q62.440624 28.721874 60.909374 28.721874Q59.565624 28.721874 58.784374 28.221874Q58.33125 27.925 58.33125 27.534374Q58.33125 27.3 58.503124 27.128124Q58.675 26.940624 58.925 26.940624Q59.128124 26.940624 59.3625 27.14375Q59.6125 27.33125 59.878124 27.409374Q60.253124 27.51875 60.83125 27.51875Q61.925 27.51875 62.315624 27.175Q62.721874 26.83125 62.721874 26.1125Q62.721874 25.39375 62.33125 24.9875Q61.95625 24.58125 61.346874 24.58125Q60.70625 24.58125 59.878124 25.003124Q59.690624 25.1125 59.55 25.1125Q59.284374 25.1125 59.1125 24.925Q58.940624 24.7375 58.940624 24.440624L58.940624 20.971874L62.6125 20.971874Q63.05 20.971874 63.221874 21.14375Q63.409374 21.3 63.409374 21.565624Q63.409374 21.83125 63.221874 22.003124Q63.05 22.175 62.6125 22.175L60.14375 22.175ZM70.76875 24.096874L70.76875 25.409374Q70.76875 26.58125 70.09688 27.659374Q69.425 28.721874 68.15938 28.721874Q67.44063 28.721874 66.925 28.409374Q66.425 28.08125 65.97188 27.221874Q65.53438 26.3625 65.53438 25.409374L65.53438 24.096874Q65.53438 22.925 66.20625 21.846874Q66.87813 20.76875 68.14375 20.76875Q68.8625 20.76875 69.3625 21.096874Q69.8625 21.409374 70.31563 22.26875Q70.76875 23.128124 70.76875 24.096874ZM69.56563 24.096874Q69.56563 23.1125 69.01875 22.378124Q68.70625 21.971874 68.14375 21.971874Q67.59688 21.971874 67.25313 22.425Q66.7375 23.096874 66.7375 24.096874L66.7375 25.409374Q66.7375 26.39375 67.28438 27.1125Q67.59688 27.51875 68.15938 27.51875Q68.70625 27.51875 69.05 27.08125Q69.56563 26.409374 69.56563 25.409374L69.56563 24.096874Z" fill-rule="nonzero"/><path fill="#000000" d="M106.76881 315.2469L109.39381 315.2469Q109.61256 315.075 109.80006 315.075Q110.08131 315.075 110.23756 315.2625Q110.40943 315.4344 110.40943 315.8719L110.40943 316.45L104.92506 316.45L104.92506 315.1844Q108.17506 312.4969 108.84693 311.73126Q109.19068 311.34064 109.19068 310.98126Q109.19068 310.54376 108.80006 310.21564Q108.42506 309.8719 107.78443 309.8719Q107.14381 309.8719 106.70631 310.2469Q106.48756 310.45 106.34693 310.84064Q106.26881 311.09064 106.12818 311.2Q105.98756 311.29376 105.76881 311.29376Q105.53443 311.29376 105.34693 311.1219Q105.17506 310.95 105.17506 310.71564Q105.17506 310.35626 105.48756 309.84064Q105.81568 309.3094 106.44068 308.9969Q107.06568 308.66876 107.80006 308.66876Q108.94068 308.66876 109.65943 309.35626Q110.39381 310.04376 110.39381 311.02814Q110.39381 311.52814 110.17506 311.95Q109.97193 312.3719 109.19068 313.1219Q108.56568 313.71564 106.76881 315.2469ZM117.50318 311.9969L117.50318 313.3094Q117.50318 314.48126 116.83131 315.5594Q116.15943 316.6219 114.89381 316.6219Q114.17506 316.6219 113.65943 316.3094Q113.15943 315.98126 112.70631 315.1219Q112.26881 314.2625 112.26881 313.3094L112.26881 311.9969Q112.26881 310.825 112.94068 309.7469Q113.61256 308.66876 114.87818 308.66876Q115.59693 308.66876 116.09693 308.9969Q116.59693 309.3094 117.05006 310.16876Q117.50318 311.02814 117.50318 311.9969ZM116.30006 311.9969Q116.30006 311.0125 115.75318 310.27814Q115.44068 309.8719 114.87818 309.8719Q114.33131 309.8719 113.98756 310.325Q113.47193 310.9969 113.47193 311.9969L113.47193 313.3094Q113.47193 314.29376 114.01881 315.0125Q114.33131 315.41876 114.89381 315.41876Q115.44068 315.41876 115.78443 314.98126Q116.30006 314.3094 116.30006 313.3094L116.30006 311.9969ZM122.50318 308.66876L122.50318 315.2469L123.70631 315.2469Q124.14381 315.2469 124.33131 315.41876Q124.51881 315.575 124.51881 315.85626Q124.51881 316.1219 124.33131 316.29376Q124.14381 316.45 123.70631 316.45L120.08131 316.45Q119.64381 316.45 119.45631 316.29376Q119.28443 316.1219 119.28443 315.84064Q119.28443 315.575 119.45631 315.41876Q119.64381 315.2469 120.08131 315.2469L121.30006 315.2469L121.30006 310.23126L120.22193 310.5125Q119.97193 310.59064 119.83131 310.59064Q119.61256 310.59064 119.44068 310.41876Q119.26881 310.23126 119.26881 309.96564Q119.26881 309.71564 119.39381 309.59064Q119.51881 309.45 119.90943 309.34064L122.50318 308.66876ZM130.5813 312.60626Q131.05005 312.96564 131.28442 313.41876Q131.5188 313.8719 131.5188 314.41876Q131.5188 315.02814 131.22192 315.54376Q130.92505 316.04376 130.28442 316.34064Q129.65942 316.6219 128.87817 316.6219Q128.11255 316.6219 127.48756 316.34064Q126.86256 316.04376 126.56568 315.52814Q126.26881 315.0125 126.26881 314.41876Q126.26881 313.8719 126.50318 313.41876Q126.73756 312.96564 127.20631 312.60626Q126.80006 312.23126 126.59693 311.8094Q126.39381 311.3875 126.39381 310.91876Q126.39381 309.9969 127.09693 309.34064Q127.80006 308.66876 128.8938 308.66876Q130.00317 308.66876 130.7063 309.34064Q131.40942 309.9969 131.40942 310.91876Q131.40942 311.40314 131.2063 311.825Q131.00317 312.2469 130.5813 312.60626ZM130.17505 310.95Q130.17505 310.4969 129.81567 310.1844Q129.47192 309.8719 128.87817 309.8719Q128.28442 309.8719 127.92506 310.1844Q127.58131 310.4969 127.58131 310.95Q127.58131 311.40314 127.92506 311.71564Q128.28442 312.02814 128.87817 312.02814Q129.47192 312.02814 129.81567 311.71564Q130.17505 311.40314 130.17505 310.95ZM130.31567 314.48126Q130.31567 314.0125 129.90942 313.6219Q129.50317 313.23126 128.8938 313.23126Q128.28442 313.23126 127.87818 313.6219Q127.47193 314.0125 127.47193 314.4969Q127.47193 314.8719 127.81568 315.15314Q128.17505 315.41876 128.8938 315.41876Q129.61255 315.41876 129.9563 315.15314Q130.31567 314.8719 130.31567 314.48126Z" fill-rule="nonzero"/><path fill="#000000" d="M167.1161 315.2469L169.7411 315.2469Q169.95985 315.075 170.14735 315.075Q170.4286 315.075 170.58485 315.2625Q170.75673 315.4344 170.75673 315.8719L170.75673 316.45L165.27235 316.45L165.27235 315.1844Q168.52235 312.4969 169.19423 311.73126Q169.53798 311.34064 169.53798 310.98126Q169.53798 310.54376 169.14735 310.21564Q168.77235 309.8719 168.13173 309.8719Q167.4911 309.8719 167.0536 310.2469Q166.83485 310.45 166.69423 310.84064Q166.6161 311.09064 166.47548 311.2Q166.33485 311.29376 166.1161 311.29376Q165.88173 311.29376 165.69423 311.1219Q165.52235 310.95 165.52235 310.71564Q165.52235 310.35626 165.83485 309.84064Q166.16298 309.3094 166.78798 308.9969Q167.41298 308.66876 168.14735 308.66876Q169.28798 308.66876 170.00673 309.35626Q170.7411 310.04376 170.7411 311.02814Q170.7411 311.52814 170.52235 311.95Q170.31923 312.3719 169.53798 313.1219Q168.91298 313.71564 167.1161 315.2469ZM177.85048 311.9969L177.85048 313.3094Q177.85048 314.48126 177.1786 315.5594Q176.50673 316.6219 175.2411 316.6219Q174.52235 316.6219 174.00673 316.3094Q173.50673 315.98126 173.0536 315.1219Q172.6161 314.2625 172.6161 313.3094L172.6161 311.9969Q172.6161 310.825 173.28798 309.7469Q173.95985 308.66876 175.22548 308.66876Q175.94423 308.66876 176.44423 308.9969Q176.94423 309.3094 177.39735 310.16876Q177.85048 311.02814 177.85048 311.9969ZM176.64735 311.9969Q176.64735 311.0125 176.10048 310.27814Q175.78798 309.8719 175.22548 309.8719Q174.6786 309.8719 174.33485 310.325Q173.81923 310.9969 173.81923 311.9969L173.81923 313.3094Q173.81923 314.29376 174.3661 315.0125Q174.6786 315.41876 175.2411 315.41876Q175.78798 315.41876 176.13173 314.98126Q176.64735 314.3094 176.64735 313.3094L176.64735 311.9969ZM182.85048 308.66876L182.85048 315.2469L184.0536 315.2469Q184.4911 315.2469 184.6786 315.41876Q184.8661 315.575 184.8661 315.85626Q184.8661 316.1219 184.6786 316.29376Q184.4911 316.45 184.0536 316.45L180.4286 316.45Q179.9911 316.45 179.8036 316.29376Q179.63173 316.1219 179.63173 315.84064Q179.63173 315.575 179.8036 315.41876Q179.9911 315.2469 180.4286 315.2469L181.64735 315.2469L181.64735 310.23126L180.56923 310.5125Q180.31923 310.59064 180.1786 310.59064Q179.95985 310.59064 179.78798 310.41876Q179.6161 310.23126 179.6161 309.96564Q179.6161 309.71564 179.7411 309.59064Q179.8661 309.45 180.25673 309.34064L182.85048 308.66876ZM190.9286 313.29376Q190.47548 313.6844 190.10048 313.85626Q189.72548 314.0125 189.3036 314.0125Q188.33485 314.0125 187.6161 313.2469Q186.89735 312.46564 186.89735 311.3094Q186.89735 310.41876 187.39735 309.6844Q188.06923 308.66876 189.3036 308.66876Q190.19423 308.66876 190.85048 309.2Q191.52235 309.73126 191.81923 310.73126Q192.13173 311.73126 192.13173 312.8094Q192.13173 314.65314 190.70985 315.7625Q189.6161 316.6219 188.3036 316.6219Q187.56923 316.6219 187.1786 316.325Q186.89735 316.1375 186.89735 315.825Q186.89735 315.5594 187.06923 315.3875Q187.25673 315.21564 187.50673 315.21564Q187.64735 315.21564 187.81923 315.3094Q188.0536 315.41876 188.3036 315.41876Q189.20985 315.41876 189.97548 314.8094Q190.7411 314.1844 190.9286 313.29376ZM190.75673 311.40314Q190.5536 310.575 190.1786 310.23126Q189.8036 309.8719 189.31923 309.8719Q188.8036 309.8719 188.44423 310.2625Q188.10048 310.65314 188.10048 311.29376Q188.10048 311.96564 188.45985 312.3875Q188.81923 312.8094 189.27235 312.8094Q190.08485 312.8094 190.75673 311.40314Z" fill-rule="nonzero"/><path fill="#000000" d="M227.46341 315.2469L230.08841 315.2469Q230.30716 315.075 230.49466 315.075Q230.77591 315.075 230.93216 315.2625Q231.10403 315.4344 231.10403 315.8719L231.10403 316.45L225.61966 316.45L225.61966 315.1844Q228.86966 312.4969 229.54153 311.73126Q229.88528 311.34064 229.88528 310.98126Q229.88528 310.54376 229.49466 310.21564Q229.11966 309.8719 228.47903 309.8719Q227.83841 309.8719 227.40091 310.2469Q227.18216 310.45 227.04153 310.84064Q226.96341 311.09064 226.82278 311.2Q226.68216 311.29376 226.46341 311.29376Q226.22903 311.29376 226.04153 311.1219Q225.86966 310.95 225.86966 310.71564Q225.86966 310.35626 226.18216 309.84064Q226.51028 309.3094 227.13528 308.9969Q227.76028 308.66876 228.49466 308.66876Q229.63528 308.66876 230.35403 309.35626Q231.08841 310.04376 231.08841 311.02814Q231.08841 311.52814 230.86966 311.95Q230.66653 312.3719 229.88528 313.1219Q229.26028 313.71564 227.46341 315.2469ZM238.19778 311.9969L238.19778 313.3094Q238.19778 314.48126 237.52591 315.5594Q236.85403 316.6219 235.58841 316.6219Q234.86966 316.6219 234.35403 316.3094Q233.85403 315.98126 233.40091 315.1219Q232.96341 314.2625 232.96341 313.3094L232.96341 311.9969Q232.96341 310.825 233.63528 309.7469Q234.30716 308.66876 235.57278 308.66876Q236.29153 308.66876 236.79153 308.9969Q237.29153 309.3094 237.74466 310.16876Q238.19778 311.02814 238.19778 311.9969ZM236.99466 311.9969Q236.99466 311.0125 236.44778 310.27814Q236.13528 309.8719 235.57278 309.8719Q235.02591 309.8719 234.68216 310.325Q234.16653 310.9969 234.16653 311.9969L234.16653 313.3094Q234.16653 314.29376 234.71341 315.0125Q235.02591 315.41876 235.58841 315.41876Q236.13528 315.41876 236.47903 314.98126Q236.99466 314.3094 236.99466 313.3094L236.99466 311.9969ZM241.46341 315.2469L244.08841 315.2469Q244.30716 315.075 244.49466 315.075Q244.77591 315.075 244.93216 315.2625Q245.10403 315.4344 245.10403 315.8719L245.10403 316.45L239.61966 316.45L239.61966 315.1844Q242.86966 312.4969 243.54153 311.73126Q243.88528 311.34064 243.88528 310.98126Q243.88528 310.54376 243.49466 310.21564Q243.11966 309.8719 242.47903 309.8719Q241.83841 309.8719 241.40091 310.2469Q241.18216 310.45 241.04153 310.84064Q240.96341 311.09064 240.82278 311.2Q240.68216 311.29376 240.46341 311.29376Q240.22903 311.29376 240.04153 311.1219Q239.86966 310.95 239.86966 310.71564Q239.86966 310.35626 240.18216 309.84064Q240.51028 309.3094 241.13528 308.9969Q241.76028 308.66876 242.49466 308.66876Q243.63528 308.66876 244.35403 309.35626Q245.08841 310.04376 245.08841 311.02814Q245.08841 311.52814 244.86966 311.95Q244.66653 312.3719 243.88528 313.1219Q243.26028 313.71564 241.46341 315.2469ZM252.19778 311.9969L252.19778 313.3094Q252.19778 314.48126 251.52591 315.5594Q250.85403 316.6219 249.58841 316.6219Q248.86966 316.6219 248.35403 316.3094Q247.85403 315.98126 247.40091 315.1219Q246.96341 314.2625 246.96341 313.3094L246.96341 311.9969Q246.96341 310.825 247.63528 309.7469Q248.30716 308.66876 249.57278 308.66876Q250.29153 308.66876 250.79153 308.9969Q251.29153 309.3094 251.74466 310.16876Q252.19778 311.02814 252.19778 311.9969ZM250.99466 311.9969Q250.99466 311.0125 250.44778 310.27814Q250.13528 309.8719 249.57278 309.8719Q249.02591 309.8719 248.68216 310.325Q248.16653 310.9969 248.16653 311.9969L248.16653 313.3094Q248.16653 314.29376 248.71341 315.0125Q249.02591 315.41876 249.58841 315.41876Q250.13528 315.41876 250.47903 314.98126Q250.99466 314.3094 250.99466 313.3094L250.99466 311.9969Z" fill-rule="nonzero"/><path fill="#000000" d="M287.81073 315.2469L290.43573 315.2469Q290.65448 315.075 290.84198 315.075Q291.12323 315.075 291.27948 315.2625Q291.45135 315.4344 291.45135 315.8719L291.45135 316.45L285.96698 316.45L285.96698 315.1844Q289.21698 312.4969 289.88885 311.73126Q290.2326 311.34064 290.2326 310.98126Q290.2326 310.54376 289.84198 310.21564Q289.46698 309.8719 288.82635 309.8719Q288.18573 309.8719 287.74823 310.2469Q287.52948 310.45 287.38885 310.84064Q287.31073 311.09064 287.1701 311.2Q287.02948 311.29376 286.81073 311.29376Q286.57635 311.29376 286.38885 311.1219Q286.21698 310.95 286.21698 310.71564Q286.21698 310.35626 286.52948 309.84064Q286.8576 309.3094 287.4826 308.9969Q288.1076 308.66876 288.84198 308.66876Q289.9826 308.66876 290.70135 309.35626Q291.43573 310.04376 291.43573 311.02814Q291.43573 311.52814 291.21698 311.95Q291.01385 312.3719 290.2326 313.1219Q289.6076 313.71564 287.81073 315.2469ZM298.5451 311.9969L298.5451 313.3094Q298.5451 314.48126 297.87323 315.5594Q297.20135 316.6219 295.93573 316.6219Q295.21698 316.6219 294.70135 316.3094Q294.20135 315.98126 293.74823 315.1219Q293.31073 314.2625 293.31073 313.3094L293.31073 311.9969Q293.31073 310.825 293.9826 309.7469Q294.65448 308.66876 295.9201 308.66876Q296.63885 308.66876 297.13885 308.9969Q297.63885 309.3094 298.09198 310.16876Q298.5451 311.02814 298.5451 311.9969ZM297.34198 311.9969Q297.34198 311.0125 296.7951 310.27814Q296.4826 309.8719 295.9201 309.8719Q295.37323 309.8719 295.02948 310.325Q294.51385 310.9969 294.51385 311.9969L294.51385 313.3094Q294.51385 314.29376 295.06073 315.0125Q295.37323 315.41876 295.93573 315.41876Q296.4826 315.41876 296.82635 314.98126Q297.34198 314.3094 297.34198 313.3094L297.34198 311.9969ZM301.81073 315.2469L304.43573 315.2469Q304.65448 315.075 304.84198 315.075Q305.12323 315.075 305.27948 315.2625Q305.45135 315.4344 305.45135 315.8719L305.45135 316.45L299.96698 316.45L299.96698 315.1844Q303.21698 312.4969 303.88885 311.73126Q304.2326 311.34064 304.2326 310.98126Q304.2326 310.54376 303.84198 310.21564Q303.46698 309.8719 302.82635 309.8719Q302.18573 309.8719 301.74823 310.2469Q301.52948 310.45 301.38885 310.84064Q301.31073 311.09064 301.1701 311.2Q301.02948 311.29376 300.81073 311.29376Q300.57635 311.29376 300.38885 311.1219Q300.21698 310.95 300.21698 310.71564Q300.21698 310.35626 300.52948 309.84064Q300.8576 309.3094 301.4826 308.9969Q302.1076 308.66876 302.84198 308.66876Q303.9826 308.66876 304.70135 309.35626Q305.43573 310.04376 305.43573 311.02814Q305.43573 311.52814 305.21698 311.95Q305.01385 312.3719 304.2326 313.1219Q303.6076 313.71564 301.81073 315.2469ZM310.5451 308.66876L310.5451 315.2469L311.74823 315.2469Q312.18573 315.2469 312.37323 315.41876Q312.56073 315.575 312.56073 315.85626Q312.56073 316.1219 312.37323 316.29376Q312.18573 316.45 311.74823 316.45L308.12323 316.45Q307.68573 316.45 307.49823 316.29376Q307.32635 316.1219 307.32635 315.84064Q307.32635 315.575 307.49823 315.41876Q307.68573 315.2469 308.12323 315.2469L309.34198 315.2469L309.34198 310.23126L308.26385 310.5125Q308.01385 310.59064 307.87323 310.59064Q307.65448 310.59064 307.4826 310.41876Q307.31073 310.23126 307.31073 309.96564Q307.31073 309.71564 307.43573 309.59064Q307.56073 309.45 307.95135 309.34064L310.5451 308.66876Z" fill-rule="nonzero"/><path fill="#000000" d="M348.15802 315.2469L350.78302 315.2469Q351.00177 315.075 351.18927 315.075Q351.47052 315.075 351.62677 315.2625Q351.79865 315.4344 351.79865 315.8719L351.79865 316.45L346.31427 316.45L346.31427 315.1844Q349.56427 312.4969 350.23615 311.73126Q350.5799 311.34064 350.5799 310.98126Q350.5799 310.54376 350.18927 310.21564Q349.81427 309.8719 349.17365 309.8719Q348.53302 309.8719 348.09552 310.2469Q347.87677 310.45 347.73615 310.84064Q347.65802 311.09064 347.5174 311.2Q347.37677 311.29376 347.15802 311.29376Q346.92365 311.29376 346.73615 311.1219Q346.56427 310.95 346.56427 310.71564Q346.56427 310.35626 346.87677 309.84064Q347.2049 309.3094 347.8299 308.9969Q348.4549 308.66876 349.18927 308.66876Q350.3299 308.66876 351.04865 309.35626Q351.78302 310.04376 351.78302 311.02814Q351.78302 311.52814 351.56427 311.95Q351.36115 312.3719 350.5799 313.1219Q349.9549 313.71564 348.15802 315.2469ZM358.8924 311.9969L358.8924 313.3094Q358.8924 314.48126 358.22052 315.5594Q357.54865 316.6219 356.28302 316.6219Q355.56427 316.6219 355.04865 316.3094Q354.54865 315.98126 354.09552 315.1219Q353.65802 314.2625 353.65802 313.3094L353.65802 311.9969Q353.65802 310.825 354.3299 309.7469Q355.00177 308.66876 356.2674 308.66876Q356.98615 308.66876 357.48615 308.9969Q357.98615 309.3094 358.43927 310.16876Q358.8924 311.02814 358.8924 311.9969ZM357.68927 311.9969Q357.68927 311.0125 357.1424 310.27814Q356.8299 309.8719 356.2674 309.8719Q355.72052 309.8719 355.37677 310.325Q354.86115 310.9969 354.86115 311.9969L354.86115 313.3094Q354.86115 314.29376 355.40802 315.0125Q355.72052 315.41876 356.28302 315.41876Q356.8299 315.41876 357.17365 314.98126Q357.68927 314.3094 357.68927 313.3094L357.68927 311.9969ZM362.15802 315.2469L364.78302 315.2469Q365.00177 315.075 365.18927 315.075Q365.47052 315.075 365.62677 315.2625Q365.79865 315.4344 365.79865 315.8719L365.79865 316.45L360.31427 316.45L360.31427 315.1844Q363.56427 312.4969 364.23615 311.73126Q364.5799 311.34064 364.5799 310.98126Q364.5799 310.54376 364.18927 310.21564Q363.81427 309.8719 363.17365 309.8719Q362.53302 309.8719 362.09552 310.2469Q361.87677 310.45 361.73615 310.84064Q361.65802 311.09064 361.5174 311.2Q361.37677 311.29376 361.15802 311.29376Q360.92365 311.29376 360.73615 311.1219Q360.56427 310.95 360.56427 310.71564Q360.56427 310.35626 360.87677 309.84064Q361.2049 309.3094 361.8299 308.9969Q362.4549 308.66876 363.18927 308.66876Q364.3299 308.66876 365.04865 309.35626Q365.78302 310.04376 365.78302 311.02814Q365.78302 311.52814 365.56427 311.95Q365.36115 312.3719 364.5799 313.1219Q363.9549 313.71564 362.15802 315.2469ZM369.15802 315.2469L371.78302 315.2469Q372.00177 315.075 372.18927 315.075Q372.47052 315.075 372.62677 315.2625Q372.79865 315.4344 372.79865 315.8719L372.79865 316.45L367.31427 316.45L367.31427 315.1844Q370.56427 312.4969 371.23615 311.73126Q371.5799 311.34064 371.5799 310.98126Q371.5799 310.54376 371.18927 310.21564Q370.81427 309.8719 370.17365 309.8719Q369.53302 309.8719 369.09552 310.2469Q368.87677 310.45 368.73615 310.84064Q368.65802 311.09064 368.5174 311.2Q368.37677 311.29376 368.15802 311.29376Q367.92365 311.29376 367.73615 311.1219Q367.56427 310.95 367.56427 310.71564Q367.56427 310.35626 367.87677 309.84064Q368.2049 309.3094 368.8299 308.9969Q369.4549 308.66876 370.18927 308.66876Q371.3299 308.66876 372.04865 309.35626Q372.78302 310.04376 372.78302 311.02814Q372.78302 311.52814 372.56427 311.95Q372.36115 312.3719 371.5799 313.1219Q370.9549 313.71564 369.15802 315.2469Z" fill-rule="nonzero"/><path fill="#000000" d="M408.50534 315.2469L411.13034 315.2469Q411.3491 315.075 411.5366 315.075Q411.81784 315.075 411.9741 315.2625Q412.14597 315.4344 412.14597 315.8719L412.14597 316.45L406.6616 316.45L406.6616 315.1844Q409.9116 312.4969 410.58347 311.73126Q410.92722 311.34064 410.92722 310.98126Q410.92722 310.54376 410.5366 310.21564Q410.1616 309.8719 409.52097 309.8719Q408.88034 309.8719 408.44284 310.2469Q408.2241 310.45 408.08347 310.84064Q408.00534 311.09064 407.86472 311.2Q407.7241 311.29376 407.50534 311.29376Q407.27097 311.29376 407.08347 311.1219Q406.9116 310.95 406.9116 310.71564Q406.9116 310.35626 407.2241 309.84064Q407.55222 309.3094 408.17722 308.9969Q408.80222 308.66876 409.5366 308.66876Q410.67722 308.66876 411.39597 309.35626Q412.13034 310.04376 412.13034 311.02814Q412.13034 311.52814 411.9116 311.95Q411.70847 312.3719 410.92722 313.1219Q410.30222 313.71564 408.50534 315.2469ZM419.23972 311.9969L419.23972 313.3094Q419.23972 314.48126 418.56784 315.5594Q417.89597 316.6219 416.63034 316.6219Q415.9116 316.6219 415.39597 316.3094Q414.89597 315.98126 414.44284 315.1219Q414.00534 314.2625 414.00534 313.3094L414.00534 311.9969Q414.00534 310.825 414.67722 309.7469Q415.3491 308.66876 416.61472 308.66876Q417.33347 308.66876 417.83347 308.9969Q418.33347 309.3094 418.7866 310.16876Q419.23972 311.02814 419.23972 311.9969ZM418.0366 311.9969Q418.0366 311.0125 417.48972 310.27814Q417.17722 309.8719 416.61472 309.8719Q416.06784 309.8719 415.7241 310.325Q415.20847 310.9969 415.20847 311.9969L415.20847 313.3094Q415.20847 314.29376 415.75534 315.0125Q416.06784 315.41876 416.63034 315.41876Q417.17722 315.41876 417.52097 314.98126Q418.0366 314.3094 418.0366 313.3094L418.0366 311.9969ZM422.50534 315.2469L425.13034 315.2469Q425.3491 315.075 425.5366 315.075Q425.81784 315.075 425.9741 315.2625Q426.14597 315.4344 426.14597 315.8719L426.14597 316.45L420.6616 316.45L420.6616 315.1844Q423.9116 312.4969 424.58347 311.73126Q424.92722 311.34064 424.92722 310.98126Q424.92722 310.54376 424.5366 310.21564Q424.1616 309.8719 423.52097 309.8719Q422.88034 309.8719 422.44284 310.2469Q422.2241 310.45 422.08347 310.84064Q422.00534 311.09064 421.86472 311.2Q421.7241 311.29376 421.50534 311.29376Q421.27097 311.29376 421.08347 311.1219Q420.9116 310.95 420.9116 310.71564Q420.9116 310.35626 421.2241 309.84064Q421.55222 309.3094 422.17722 308.9969Q422.80222 308.66876 423.5366 308.66876Q424.67722 308.66876 425.39597 309.35626Q426.13034 310.04376 426.13034 311.02814Q426.13034 311.52814 425.9116 311.95Q425.70847 312.3719 424.92722 313.1219Q424.30222 313.71564 422.50534 315.2469ZM432.33347 312.4344Q432.86472 312.79376 433.13034 313.27814Q433.39597 313.7469 433.39597 314.34064Q433.39597 314.98126 433.0366 315.52814Q432.69284 316.075 432.0366 316.35626Q431.38034 316.6219 430.30222 316.6219Q428.9116 316.6219 428.20847 316.1844Q427.81784 315.95 427.81784 315.60626Q427.81784 315.34064 427.98972 315.16876Q428.1616 314.9969 428.4116 314.9969Q428.56784 314.9969 428.75534 315.10626Q429.02097 315.27814 429.23972 315.34064Q429.5991 315.41876 430.20847 315.41876Q431.25534 315.41876 431.7241 315.15314Q432.19284 314.8719 432.19284 314.3875Q432.19284 314.0125 431.9116 313.66876Q431.64597 313.325 431.19284 313.1375Q430.92722 313.02814 430.30222 312.9969Q430.00534 312.98126 429.83347 312.8094Q429.67722 312.6375 429.67722 312.3875Q429.67722 312.1375 429.8491 311.96564Q430.0366 311.77814 430.30222 311.77814Q430.89597 311.77814 430.94284 311.77814Q431.17722 311.7625 431.4116 311.6375Q431.64597 311.4969 431.7866 311.27814Q431.92722 311.04376 431.92722 310.8094Q431.92722 310.41876 431.58347 310.15314Q431.25534 309.8719 430.58347 309.8719Q429.7241 309.8719 429.25534 310.3719Q429.13034 310.5125 429.0366 310.5594Q428.92722 310.6219 428.77097 310.6219Q428.52097 310.6219 428.3491 310.45Q428.17722 310.27814 428.17722 310.0125Q428.17722 309.60626 428.70847 309.23126Q429.48972 308.66876 430.67722 308.66876Q431.7866 308.66876 432.45847 309.3094Q433.13034 309.9344 433.13034 310.825Q433.13034 311.29376 432.92722 311.7Q432.73972 312.09064 432.33347 312.4344Z" fill-rule="nonzero"/><path fill="#000000" d="M468.85263 315.2469L471.47763 315.2469Q471.69638 315.075 471.88388 315.075Q472.16513 315.075 472.32138 315.2625Q472.49326 315.4344 472.49326 315.8719L472.49326 316.45L467.00888 316.45L467.00888 315.1844Q470.25888 312.4969 470.93076 311.73126Q471.2745 311.34064 471.2745 310.98126Q471.2745 310.54376 470.88388 310.21564Q470.50888 309.8719 469.86826 309.8719Q469.22763 309.8719 468.79013 310.2469Q468.57138 310.45 468.43076 310.84064Q468.35263 311.09064 468.212 311.2Q468.07138 311.29376 467.85263 311.29376Q467.61826 311.29376 467.43076 311.1219Q467.25888 310.95 467.25888 310.71564Q467.25888 310.35626 467.57138 309.84064Q467.8995 309.3094 468.5245 308.9969Q469.1495 308.66876 469.88388 308.66876Q471.0245 308.66876 471.74326 309.35626Q472.47763 310.04376 472.47763 311.02814Q472.47763 311.52814 472.25888 311.95Q472.05576 312.3719 471.2745 313.1219Q470.6495 313.71564 468.85263 315.2469ZM479.587 311.9969L479.587 313.3094Q479.587 314.48126 478.91513 315.5594Q478.24326 316.6219 476.97763 316.6219Q476.25888 316.6219 475.74326 316.3094Q475.24326 315.98126 474.79013 315.1219Q474.35263 314.2625 474.35263 313.3094L474.35263 311.9969Q474.35263 310.825 475.0245 309.7469Q475.69638 308.66876 476.962 308.66876Q477.68076 308.66876 478.18076 308.9969Q478.68076 309.3094 479.13388 310.16876Q479.587 311.02814 479.587 311.9969ZM478.38388 311.9969Q478.38388 311.0125 477.837 310.27814Q477.5245 309.8719 476.962 309.8719Q476.41513 309.8719 476.07138 310.325Q475.55576 310.9969 475.55576 311.9969L475.55576 313.3094Q475.55576 314.29376 476.10263 315.0125Q476.41513 315.41876 476.97763 315.41876Q477.5245 315.41876 477.86826 314.98126Q478.38388 314.3094 478.38388 313.3094L478.38388 311.9969ZM482.85263 315.2469L485.47763 315.2469Q485.69638 315.075 485.88388 315.075Q486.16513 315.075 486.32138 315.2625Q486.49326 315.4344 486.49326 315.8719L486.49326 316.45L481.00888 316.45L481.00888 315.1844Q484.25888 312.4969 484.93076 311.73126Q485.2745 311.34064 485.2745 310.98126Q485.2745 310.54376 484.88388 310.21564Q484.50888 309.8719 483.86826 309.8719Q483.22763 309.8719 482.79013 310.2469Q482.57138 310.45 482.43076 310.84064Q482.35263 311.09064 482.212 311.2Q482.07138 311.29376 481.85263 311.29376Q481.61826 311.29376 481.43076 311.1219Q481.25888 310.95 481.25888 310.71564Q481.25888 310.35626 481.57138 309.84064Q481.8995 309.3094 482.5245 308.9969Q483.1495 308.66876 483.88388 308.66876Q485.0245 308.66876 485.74326 309.35626Q486.47763 310.04376 486.47763 311.02814Q486.47763 311.52814 486.25888 311.95Q486.05576 312.3719 485.2745 313.1219Q484.6495 313.71564 482.85263 315.2469ZM492.72763 308.8719L492.72763 313.5594Q493.11826 313.5594 493.29013 313.73126Q493.47763 313.90314 493.47763 314.16876Q493.47763 314.4344 493.29013 314.60626Q493.10263 314.7625 492.72763 314.7625L492.72763 315.2469Q493.11826 315.2469 493.29013 315.41876Q493.47763 315.59064 493.47763 315.85626Q493.47763 316.1219 493.29013 316.29376Q493.10263 316.45 492.66513 316.45L491.05576 316.45Q490.63388 316.45 490.44638 316.29376Q490.25888 316.1219 490.25888 315.84064Q490.25888 315.575 490.44638 315.41876Q490.63388 315.2469 491.05576 315.2469L491.5245 315.2469L491.5245 314.7625L488.25888 314.7625L488.25888 313.7625L491.1495 308.8719L492.72763 308.8719ZM491.5245 313.5594L491.5245 310.60626L489.79013 313.5594L491.5245 313.5594Z" fill-rule="nonzero"/><path fill="#000000" d="M529.19995 315.2469L531.82495 315.2469Q532.0437 315.075 532.2312 315.075Q532.51245 315.075 532.6687 315.2625Q532.8406 315.4344 532.8406 315.8719L532.8406 316.45L527.3562 316.45L527.3562 315.1844Q530.6062 312.4969 531.2781 311.73126Q531.6218 311.34064 531.6218 310.98126Q531.6218 310.54376 531.2312 310.21564Q530.8562 309.8719 530.2156 309.8719Q529.57495 309.8719 529.13745 310.2469Q528.9187 310.45 528.7781 310.84064Q528.69995 311.09064 528.5593 311.2Q528.4187 311.29376 528.19995 311.29376Q527.9656 311.29376 527.7781 311.1219Q527.6062 310.95 527.6062 310.71564Q527.6062 310.35626 527.9187 309.84064Q528.2468 309.3094 528.8718 308.9969Q529.4968 308.66876 530.2312 308.66876Q531.3718 308.66876 532.0906 309.35626Q532.82495 310.04376 532.82495 311.02814Q532.82495 311.52814 532.6062 311.95Q532.4031 312.3719 531.6218 313.1219Q530.9968 313.71564 529.19995 315.2469ZM539.9343 311.9969L539.9343 313.3094Q539.9343 314.48126 539.26245 315.5594Q538.5906 316.6219 537.32495 316.6219Q536.6062 316.6219 536.0906 316.3094Q535.5906 315.98126 535.13745 315.1219Q534.69995 314.2625 534.69995 313.3094L534.69995 311.9969Q534.69995 310.825 535.3718 309.7469Q536.0437 308.66876 537.3093 308.66876Q538.0281 308.66876 538.5281 308.9969Q539.0281 309.3094 539.4812 310.16876Q539.9343 311.02814 539.9343 311.9969ZM538.7312 311.9969Q538.7312 311.0125 538.1843 310.27814Q537.8718 309.8719 537.3093 309.8719Q536.76245 309.8719 536.4187 310.325Q535.9031 310.9969 535.9031 311.9969L535.9031 313.3094Q535.9031 314.29376 536.44995 315.0125Q536.76245 315.41876 537.32495 315.41876Q537.8718 315.41876 538.2156 314.98126Q538.7312 314.3094 538.7312 313.3094L538.7312 311.9969ZM543.19995 315.2469L545.82495 315.2469Q546.0437 315.075 546.2312 315.075Q546.51245 315.075 546.6687 315.2625Q546.8406 315.4344 546.8406 315.8719L546.8406 316.45L541.3562 316.45L541.3562 315.1844Q544.6062 312.4969 545.2781 311.73126Q545.6218 311.34064 545.6218 310.98126Q545.6218 310.54376 545.2312 310.21564Q544.8562 309.8719 544.2156 309.8719Q543.57495 309.8719 543.13745 310.2469Q542.9187 310.45 542.7781 310.84064Q542.69995 311.09064 542.5593 311.2Q542.4187 311.29376 542.19995 311.29376Q541.9656 311.29376 541.7781 311.1219Q541.6062 310.95 541.6062 310.71564Q541.6062 310.35626 541.9187 309.84064Q542.2468 309.3094 542.8718 308.9969Q543.4968 308.66876 544.2312 308.66876Q545.3718 308.66876 546.0906 309.35626Q546.82495 310.04376 546.82495 311.02814Q546.82495 311.52814 546.6062 311.95Q546.4031 312.3719 545.6218 313.1219Q544.9968 313.71564 543.19995 315.2469ZM550.3093 310.075L550.3093 311.4969Q550.9812 311.29376 551.51245 311.29376Q552.6218 311.29376 553.3562 312.04376Q554.0906 312.79376 554.0906 313.9969Q554.0906 315.23126 553.3406 315.9344Q552.6062 316.6219 551.07495 316.6219Q549.7312 316.6219 548.94995 316.1219Q548.4968 315.825 548.4968 315.4344Q548.4968 315.2 548.6687 315.02814Q548.8406 314.84064 549.0906 314.84064Q549.2937 314.84064 549.5281 315.04376Q549.7781 315.23126 550.0437 315.3094Q550.4187 315.41876 550.9968 315.41876Q552.0906 315.41876 552.4812 315.075Q552.88745 314.73126 552.88745 314.0125Q552.88745 313.29376 552.4968 312.8875Q552.1218 312.48126 551.51245 312.48126Q550.8718 312.48126 550.0437 312.90314Q549.8562 313.0125 549.7156 313.0125Q549.44995 313.0125 549.2781 312.825Q549.1062 312.6375 549.1062 312.34064L549.1062 308.8719L552.7781 308.8719Q553.2156 308.8719 553.38745 309.04376Q553.57495 309.2 553.57495 309.46564Q553.57495 309.73126 553.38745 309.90314Q553.2156 310.075 552.7781 310.075L550.3093 310.075Z" fill-rule="nonzero"/></svg>