<svg version="1.1" viewBox="0.0 0.0 600.0 371.0" fill="none" stroke="none" stroke-linecap="square" stroke-miterlimit="10" width="600" height="371" xmlns:xlink="http://www.w3.org/1999/xlink" xmlns="http://www.w3.org/2000/svg"><path fill="#ffffff" d="M0 0L600.0 0L600.0 371.0L0 371.0L0 0Z" fill-rule="nonzero"/><path stroke="#333333" stroke-width="1.0" stroke-linecap="butt" d="M77.5 300.5L581.5 300.5" fill-rule="nonzero"/><path stroke="#cccccc" stroke-width="1.0" stroke-linecap="butt" d="M77.5 231.5L581.5 231.5" fill-rule="nonzero"/><path stroke="#cccccc" stroke-width="1.0" stroke-linecap="butt" d="M77.5 163.5L581.5 163.5" fill-rule="nonzero"/><path stroke="#cccccc" stroke-width="1.0" stroke-linecap="butt" d="M77.5 94.5L581.5 94.5" fill-rule="nonzero"/><path stroke="#cccccc" stroke-width="1.0" stroke-linecap="butt" d="M77.5 25.5L581.5 25.5" fill-rule="nonzero"/><clipPath id="id_0"><path d="M77.55 25.55L581.45 25.55L581.45 300.45L77.55 300.45L77.55 25.55Z" clip-rule="nonzero"/></clipPath><path stroke="#000000" stroke-width="2.0" stroke-linecap="butt" stroke-opacity="0.0" clip-path="url(#id_0)" d="M172.0 300.0L111.0 300.0L111.0 168.0C111.0 166.89543 111.89543 166.0 113.0 166.0L170.0 166.0C171.10457 166.0 172.0 166.89543 172.0 168.0Z" fill-rule="nonzero"/><path fill="#4527a4" clip-path="url(#id_0)" d="M172.0 300.0L111.0 300.0L111.0 168.0C111.0 166.89543 111.89543 166.0 113.0 166.0L170.0 166.0C171.10457 166.0 172.0 166.89543 172.0 168.0Z" fill-rule="nonzero"/><path stroke="#000000" stroke-width="2.0" stroke-linecap="butt" stroke-opacity="0.0" clip-path="url(#id_0)" d="M266.0 300.0L205.0 300.0L205.0 144.0C205.0 142.89543 205.89543 142.0 207.0 142.0L264.0 142.0C265.10458 142.0 266.0 142.89543 266.0 144.0Z" fill-rule="nonzero"/><path fill="#4527a4" clip-path="url(#id_0)" d="M266.0 300.0L205.0 300.0L205.0 144.0C205.0 142.89543 205.89543 142.0 207.0 142.0L264.0 142.0C265.10458 142.0 266.0 142.89543 266.0 144.0Z" fill-rule="nonzero"/><path stroke="#000000" stroke-width="2.0" stroke-linecap="butt" stroke-opacity="0.0" clip-path="url(#id_0)" d="M361.0 300.0L300.0 300.0L300.0 117.0C300.0 115.89543 300.89542 115.0 302.0 115.0L359.0 115.0C360.10458 115.0 361.0 115.89543 361.0 117.0Z" fill-rule="nonzero"/><path fill="#4527a4" clip-path="url(#id_0)" d="M361.0 300.0L300.0 300.0L300.0 117.0C300.0 115.89543 300.89542 115.0 302.0 115.0L359.0 115.0C360.10458 115.0 361.0 115.89543 361.0 117.0Z" fill-rule="nonzero"/><path stroke="#000000" stroke-width="2.0" stroke-linecap="butt" stroke-opacity="0.0" clip-path="url(#id_0)" d="M455.0 300.0L394.0 300.0L394.0 79.0C394.0 77.89543 394.89542 77.0 396.0 77.0L453.0 77.0C454.10458 77.0 455.0 77.89543 455.0 79.0Z" fill-rule="nonzero"/><path fill="#4527a4" clip-path="url(#id_0)" d="M455.0 300.0L394.0 300.0L394.0 79.0C394.0 77.89543 394.89542 77.0 396.0 77.0L453.0 77.0C454.10458 77.0 455.0 77.89543 455.0 79.0Z" fill-rule="nonzero"/><path stroke="#000000" stroke-width="2.0" stroke-linecap="butt" stroke-opacity="0.0" clip-path="url(#id_0)" d="M549.0 300.0L488.0 300.0L488.0 28.0C488.0 26.89543 488.89542 26.0 490.0 26.0L547.0 26.0C548.10455 26.0 549.0 26.89543 549.0 28.0Z" fill-rule="nonzero"/><path fill="#4527a4" clip-path="url(#id_0)" d="M549.0 300.0L488.0 300.0L488.0 28.0C488.0 26.89543 488.89542 26.0 490.0 26.0L547.0 26.0C548.10455 26.0 549.0 26.89543 549.0 28.0Z" fill-rule="nonzero"/><path fill="#000000" d="M319.70312 345.46564L319.70312 347.2469L320.51562 347.2469Q320.95312 347.2469 321.125 347.41876Q321.3125 347.575 321.3125 347.85626Q321.3125 348.1219 321.125 348.29376Q320.95312 348.45 320.51562 348.45L317.70312 348.45Q317.26562 348.45 317.07812 348.29376Q316.90625 348.1219 316.90625 347.84064Q316.90625 347.575 317.07812 347.41876Q317.26562 347.2469 317.70312 347.2469L318.5 347.2469L318.5 345.46564L316.51562 342.54376Q316.125 342.54376 315.9375 342.3875Q315.75 342.21564 315.75 341.95Q315.75 341.66876 315.9375 341.5125Q316.125 341.34064 316.5625 341.34064L317.64062 341.34064Q318.07812 341.34064 318.26562 341.5125Q318.45312 341.66876 318.45312 341.95Q318.45312 342.35626 317.96875 342.54376L319.10938 344.23126L320.21875 342.54376Q319.95312 342.45 319.84375 342.29376Q319.73438 342.1375 319.73438 341.95Q319.73438 341.66876 319.92188 341.5125Q320.10938 341.34064 320.54688 341.34064L321.67188 341.34064Q322.10938 341.34064 322.28125 341.5125Q322.46875 341.66876 322.46875 341.95Q322.46875 342.21564 322.28125 342.3875Q322.09375 342.54376 321.67188 342.54376L319.70312 345.46564ZM329.10938 346.40314L324.1875 346.40314Q324.375 346.8719 324.84375 347.15314Q325.32812 347.4344 326.14062 347.4344Q326.8125 347.4344 327.92188 347.15314Q328.375 347.04376 328.54688 347.04376Q328.79688 347.04376 328.95312 347.21564Q329.125 347.3719 329.125 347.6375Q329.125 347.8719 328.95312 348.02814Q328.71875 348.2469 327.79688 348.45Q326.89062 348.6375 326.0625 348.6375Q324.60938 348.6375 323.75 347.825Q322.89062 347.0125 322.89062 345.825Q322.89062 344.5594 323.8125 343.7625Q324.75 342.96564 325.96875 342.96564Q326.70312 342.96564 327.3125 343.23126Q327.9375 343.48126 328.23438 343.77814Q328.65625 344.21564 328.92188 344.85626Q329.10938 345.3094 329.10938 345.8875L329.10938 346.40314ZM327.78125 345.2Q327.51562 344.6844 327.0625 344.4344Q326.625 344.16876 326.0 344.16876Q325.39062 344.16876 324.9375 344.4344Q324.5 344.6844 324.21875 345.2L327.78125 345.2ZM334.1875 348.45L334.1875 348.16876Q333.73438 348.40314 333.1875 348.52814Q332.64062 348.65314 332.20312 348.65314Q331.23438 348.65314 330.625 348.1375Q330.01562 347.6219 330.01562 346.9969Q330.01562 346.2469 330.78125 345.60626Q331.5625 344.95 332.92188 344.95Q333.46875 344.95 334.1875 345.075L334.1875 344.77814Q334.1875 344.5125 333.95312 344.34064Q333.71875 344.16876 333.0625 344.16876Q332.53125 344.16876 331.6875 344.3875Q331.375 344.46564 331.1875 344.46564Q330.95312 344.46564 330.78125 344.29376Q330.625 344.10626 330.625 343.84064Q330.625 343.6844 330.67188 343.575Q330.73438 343.46564 330.84375 343.40314Q330.95312 343.34064 331.28125 343.2469Q331.73438 343.1219 332.1875 343.04376Q332.65625 342.96564 333.03125 342.96564Q334.14062 342.96564 334.76562 343.45Q335.39062 343.9344 335.39062 344.77814L335.39062 347.2469L335.59375 347.2469Q336.01562 347.2469 336.20312 347.41876Q336.39062 347.575 336.39062 347.85626Q336.39062 348.1219 336.20312 348.29376Q336.01562 348.45 335.59375 348.45L334.1875 348.45ZM334.1875 346.29376Q333.46875 346.15314 332.85938 346.15314Q332.125 346.15314 331.59375 346.5125Q331.26562 346.7469 331.26562 346.98126Q331.26562 347.15314 331.42188 347.2469Q331.71875 347.45 332.21875 347.45Q332.65625 347.45 333.20312 347.27814Q333.75 347.10626 334.1875 346.8094L334.1875 346.29376ZM339.85938 343.1219L339.85938 343.8719Q340.60938 343.34064 341.04688 343.15314Q341.48438 342.96564 341.85938 342.96564Q342.45312 342.96564 343.0 343.40314Q343.375 343.7 343.375 343.9969Q343.375 344.2625 343.1875 344.45Q343.01562 344.6219 342.76562 344.6219Q342.54688 344.6219 342.29688 344.40314Q342.04688 344.16876 341.85938 344.16876Q341.60938 344.16876 341.10938 344.4969Q340.60938 344.8094 339.85938 345.4344L339.85938 347.2469L341.5625 347.2469Q342.0 347.2469 342.17188 347.41876Q342.35938 347.575 342.35938 347.85626Q342.35938 348.1219 342.17188 348.29376Q342.0 348.45 341.5625 348.45L337.9375 348.45Q337.5 348.45 337.3125 348.29376Q337.14062 348.1219 337.14062 347.84064Q337.14062 347.575 337.3125 347.41876Q337.5 347.2469 337.9375 347.2469L338.65625 347.2469L338.65625 344.325L338.21875 344.325Q337.78125 344.325 337.59375 344.16876Q337.42188 343.9969 337.42188 343.73126Q337.42188 343.46564 337.59375 343.29376Q337.78125 343.1219 338.21875 343.1219L339.85938 343.1219Z" fill-rule="nonzero"/><path fill="#000000" d="M23.768763 269.28125L27.346888 269.28125L27.346888 268.84375Q27.346888 268.40625 27.518763 268.23438Q27.675013 268.04688 27.956263 268.04688Q28.221888 268.04688 28.393763 268.23438Q28.550013 268.40625 28.550013 268.84375L28.550013 270.42188Q28.550013 270.85938 28.393763 271.03125Q28.221888 271.21875 27.940638 271.21875Q27.675013 271.21875 27.518763 271.03125Q27.346888 270.85938 27.346888 270.48438L22.643763 270.48438Q22.612513 270.79688 22.456263 270.96875Q22.284388 271.125 22.050013 271.125Q21.768763 271.125 21.612513 270.9375Q21.440638 270.75 21.440638 270.3125L21.440638 269.0L25.065638 267.35938L21.440638 265.75L21.440638 264.42188Q21.440638 263.98438 21.612513 263.8125Q21.768763 263.625 22.050013 263.625Q22.284388 263.625 22.456263 263.79688Q22.612513 263.95312 22.643763 264.26562L27.346888 264.26562Q27.346888 263.875 27.518763 263.70312Q27.690638 263.51562 27.956263 263.51562Q28.221888 263.51562 28.393763 263.70312Q28.550013 263.89062 28.550013 264.3125L28.550013 265.90625Q28.550013 266.32812 28.393763 266.51562Q28.221888 266.70312 27.940638 266.70312Q27.675013 266.70312 27.518763 266.51562Q27.346888 266.32812 27.346888 265.90625L27.346888 265.46875L23.768763 265.46875L26.862513 266.84375L26.862513 267.875L23.768763 269.28125ZM28.550013 259.3125L28.268763 259.3125Q28.503138 259.76562 28.628138 260.3125Q28.753138 260.85938 28.753138 261.29688Q28.753138 262.26562 28.237513 262.875Q27.721888 263.48438 27.096888 263.48438Q26.346888 263.48438 25.706263 262.71875Q25.050013 261.9375 25.050013 260.57812Q25.050013 260.03125 25.175013 259.3125L24.878138 259.3125Q24.612513 259.3125 24.440638 259.54688Q24.268763 259.78125 24.268763 260.4375Q24.268763 260.96875 24.487513 261.8125Q24.565638 262.125 24.565638 262.3125Q24.565638 262.54688 24.393763 262.71875Q24.206263 262.875 23.940638 262.875Q23.784388 262.875 23.675013 262.82812Q23.565638 262.76562 23.503138 262.65625Q23.440638 262.54688 23.346888 262.21875Q23.221888 261.76562 23.143763 261.3125Q23.065638 260.84375 23.065638 260.46875Q23.065638 259.35938 23.550013 258.73438Q24.034388 258.10938 24.878138 258.10938L27.346888 258.10938L27.346888 257.90625Q27.346888 257.48438 27.518763 257.29688Q27.675013 257.10938 27.956263 257.10938Q28.221888 257.10938 28.393763 257.29688Q28.550013 257.48438 28.550013 257.90625L28.550013 259.3125ZM26.393763 259.3125Q26.253138 260.03125 26.253138 260.64062Q26.253138 261.375 26.612513 261.90625Q26.846888 262.23438 27.081263 262.23438Q27.253138 262.23438 27.346888 262.07812Q27.550013 261.78125 27.550013 261.28125Q27.550013 260.84375 27.378138 260.29688Q27.206263 259.75 26.909388 259.3125L26.393763 259.3125ZM23.221888 253.64062L23.971888 253.64062Q23.440638 252.89062 23.253138 252.45312Q23.065638 252.01562 23.065638 251.64062Q23.065638 251.04688 23.503138 250.5Q23.800013 250.125 24.096888 250.125Q24.362513 250.125 24.550013 250.3125Q24.721888 250.48438 24.721888 250.73438Q24.721888 250.95312 24.503138 251.20312Q24.268763 251.45312 24.268763 251.64062Q24.268763 251.89062 24.596888 252.39062Q24.909388 252.89062 25.534388 253.64062L27.346888 253.64062L27.346888 251.9375Q27.346888 251.5 27.518763 251.32812Q27.675013 251.14062 27.956263 251.14062Q28.221888 251.14062 28.393763 251.32812Q28.550013 251.5 28.550013 251.9375L28.550013 255.5625Q28.550013 256.0 28.393763 256.1875Q28.221888 256.35938 27.940638 256.35938Q27.675013 256.35938 27.518763 256.1875Q27.346888 256.0 27.346888 255.5625L27.346888 254.84375L24.425013 254.84375L24.425013 255.28125Q24.425013 255.71875 24.268763 255.90625Q24.096888 256.07812 23.831263 256.07812Q23.565638 256.07812 23.393763 255.90625Q23.221888 255.71875 23.221888 255.28125L23.221888 253.64062ZM26.550013 247.39062L28.550013 247.39062L28.550013 248.79688Q28.550013 249.21875 28.393763 249.40625Q28.221888 249.59375 27.940638 249.59375Q27.675013 249.59375 27.518763 249.40625Q27.346888 249.21875 27.346888 248.79688L27.346888 248.59375L22.143763 248.59375L22.143763 248.79688Q22.143763 249.21875 21.987513 249.40625Q21.815638 249.59375 21.550013 249.59375Q21.284388 249.59375 21.128138 249.40625Q20.956263 249.21875 20.956263 248.79688L20.956263 247.39062L25.003138 247.39062L24.237513 246.45312Q23.987513 246.59375 23.831263 246.59375Q23.565638 246.59375 23.393763 246.42188Q23.221888 246.23438 23.221888 245.79688L23.221888 244.42188Q23.221888 244.0 23.393763 243.8125Q23.565638 243.625 23.831263 243.625Q24.096888 243.625 24.268763 243.8125Q24.425013 244.0 24.425013 244.42188L24.425013 244.76562L25.612513 246.21875L27.346888 244.25L27.346888 243.90625Q27.346888 243.46875 27.518763 243.29688Q27.675013 243.10938 27.956263 243.10938Q28.221888 243.10938 28.393763 243.29688Q28.550013 243.46875 28.550013 243.90625L28.550013 245.28125Q28.550013 245.71875 28.393763 245.90625Q28.221888 246.09375 27.940638 246.09375Q27.721888 246.09375 27.487513 245.89062L26.362513 247.15625L26.550013 247.39062ZM26.503138 236.39062L26.503138 241.3125Q26.971888 241.125 27.253138 240.65625Q27.534388 240.17188 27.534388 239.35938Q27.534388 238.6875 27.253138 237.57812Q27.143763 237.125 27.143763 236.95312Q27.143763 236.70312 27.315638 236.54688Q27.471888 236.375 27.737513 236.375Q27.971888 236.375 28.128138 236.54688Q28.346888 236.78125 28.550013 237.70312Q28.737513 238.60938 28.737513 239.4375Q28.737513 240.89062 27.925013 241.75Q27.112513 242.60938 25.925013 242.60938Q24.659388 242.60938 23.862513 241.6875Q23.065638 240.75 23.065638 239.53125Q23.065638 238.79688 23.331263 238.1875Q23.581263 237.5625 23.878138 237.26562Q24.315638 236.84375 24.956263 236.57812Q25.409388 236.39062 25.987513 236.39062L26.503138 236.39062ZM25.300013 237.71875Q24.784388 237.98438 24.534388 238.4375Q24.268763 238.875 24.268763 239.5Q24.268763 240.10938 24.534388 240.5625Q24.784388 241.0 25.300013 241.28125L25.300013 237.71875ZM24.425013 232.6875L26.831263 232.6875Q27.221888 232.6875 27.346888 232.53125Q27.534388 232.29688 27.534388 231.65625Q27.534388 230.73438 27.143763 229.95312Q27.003138 229.65625 27.003138 229.48438Q27.003138 229.25 27.175013 229.07812Q27.346888 228.90625 27.596888 228.90625Q27.831263 228.90625 28.003138 229.09375Q28.284388 229.39062 28.518763 230.23438Q28.737513 231.07812 28.737513 231.65625Q28.737513 232.78125 28.253138 233.34375Q27.768763 233.89062 27.065638 233.89062L24.425013 233.89062L24.425013 234.32812Q24.425013 234.76562 24.268763 234.95312Q24.096888 235.125 23.831263 235.125Q23.565638 235.125 23.393763 234.95312Q23.221888 234.76562 23.221888 234.32812L23.221888 233.89062L22.143763 233.89062Q21.706263 233.89062 21.534388 233.73438Q21.346888 233.5625 21.346888 233.29688Q21.346888 233.03125 21.534388 232.85938Q21.706263 232.6875 22.143763 232.6875L23.221888 232.6875L23.221888 230.46875Q23.221888 230.04688 23.393763 229.85938Q23.565638 229.67188 23.831263 229.67188Q24.096888 229.67188 24.268763 229.85938Q24.425013 230.04688 24.425013 230.46875L24.425013 232.6875ZM25.831263 219.64062L27.346888 219.64062L27.346888 219.20312Q27.346888 218.76562 27.518763 218.59375Q27.675013 218.40625 27.956263 218.40625Q28.221888 218.40625 28.393763 218.59375Q28.550013 218.76562 28.550013 219.20312L28.550013 221.03125Q28.550013 221.45312 28.393763 221.64062Q28.221888 221.82812 27.940638 221.82812Q27.675013 221.82812 27.518763 221.64062Q27.346888 221.45312 27.346888 221.03125L27.346888 220.84375L22.643763 220.84375L22.643763 221.03125Q22.643763 221.45312 22.487513 221.64062Q22.315638 221.82812 22.050013 221.82812Q21.768763 221.82812 21.612513 221.64062Q21.440638 221.45312 21.440638 221.03125L21.440638 218.3125Q21.440638 217.03125 22.081263 216.34375Q22.706263 215.64062 23.612513 215.64062Q24.175013 215.64062 24.643763 215.96875Q25.096888 216.29688 25.456263 216.95312Q25.784388 216.57812 26.300013 216.14062Q26.643763 215.875 27.346888 215.40625Q27.346888 214.95312 27.440638 214.8125Q27.628138 214.54688 27.956263 214.54688Q28.221888 214.54688 28.393763 214.73438Q28.550013 214.90625 28.550013 215.34375L28.550013 216.03125Q26.300013 217.48438 25.831263 218.45312L25.831263 219.64062ZM24.628138 219.64062L24.628138 218.70312Q24.628138 218.17188 24.471888 217.76562Q24.268763 217.21875 24.034388 217.03125Q23.800013 216.84375 23.565638 216.84375Q23.221888 216.84375 22.940638 217.20312Q22.643763 217.5625 22.643763 218.26562L22.643763 219.64062L24.628138 219.64062ZM26.503138 208.39062L26.503138 213.3125Q26.971888 213.125 27.253138 212.65625Q27.534388 212.17188 27.534388 211.35938Q27.534388 210.6875 27.253138 209.57812Q27.143763 209.125 27.143763 208.95312Q27.143763 208.70312 27.315638 208.54688Q27.471888 208.375 27.737513 208.375Q27.971888 208.375 28.128138 208.54688Q28.346888 208.78125 28.550013 209.70312Q28.737513 210.60938 28.737513 211.4375Q28.737513 212.89062 27.925013 213.75Q27.112513 214.60938 25.925013 214.60938Q24.659388 214.60938 23.862513 213.6875Q23.065638 212.75 23.065638 211.53125Q23.065638 210.79688 23.331263 210.1875Q23.581263 209.5625 23.878138 209.26562Q24.315638 208.84375 24.956263 208.57812Q25.409388 208.39062 25.987513 208.39062L26.503138 208.39062ZM25.300013 209.71875Q24.784388 209.98438 24.534388 210.4375Q24.268763 210.875 24.268763 211.5Q24.268763 212.10938 24.534388 212.5625Q24.784388 213.0 25.300013 213.28125L25.300013 209.71875ZM27.096888 204.39062L24.425013 203.09375Q24.425013 203.57812 24.346888 203.70312Q24.159388 204.0 23.831263 204.0Q23.565638 204.0 23.393763 203.82812Q23.221888 203.64062 23.221888 203.20312L23.221888 201.54688Q23.221888 201.125 23.393763 200.9375Q23.565638 200.75 23.831263 200.75Q24.096888 200.75 24.268763 200.9375Q24.425013 201.125 24.425013 201.54688L24.425013 201.75L28.550013 203.76562L28.550013 205.01562L24.425013 207.03125L24.425013 207.20312Q24.425013 207.625 24.268763 207.8125Q24.096888 208.0 23.831263 208.0Q23.565638 208.0 23.393763 207.8125Q23.221888 207.625 23.221888 207.20312L23.221888 205.57812Q23.221888 205.15625 23.393763 204.96875Q23.565638 204.78125 23.831263 204.78125Q24.159388 204.78125 24.346888 205.0625Q24.425013 205.20312 24.425013 205.70312L27.096888 204.39062ZM26.503138 194.39062L26.503138 199.3125Q26.971888 199.125 27.253138 198.65625Q27.534388 198.17188 27.534388 197.35938Q27.534388 196.6875 27.253138 195.57812Q27.143763 195.125 27.143763 194.95312Q27.143763 194.70312 27.315638 194.54688Q27.471888 194.375 27.737513 194.375Q27.971888 194.375 28.128138 194.54688Q28.346888 194.78125 28.550013 195.70312Q28.737513 196.60938 28.737513 197.4375Q28.737513 198.89062 27.925013 199.75Q27.112513 200.60938 25.925013 200.60938Q24.659388 200.60938 23.862513 199.6875Q23.065638 198.75 23.065638 197.53125Q23.065638 196.79688 23.331263 196.1875Q23.581263 195.5625 23.878138 195.26562Q24.315638 194.84375 24.956263 194.57812Q25.409388 194.39062 25.987513 194.39062L26.503138 194.39062ZM25.300013 195.71875Q24.784388 195.98438 24.534388 196.4375Q24.268763 196.875 24.268763 197.5Q24.268763 198.10938 24.534388 198.5625Q24.784388 199.0 25.300013 199.28125L25.300013 195.71875ZM23.221888 191.60938L23.628138 191.60938Q23.346888 191.28125 23.206263 190.89062Q23.065638 190.5 23.065638 190.03125Q23.065638 188.96875 23.737513 188.34375Q24.253138 187.85938 25.112513 187.85938L27.346888 187.85938Q27.346888 187.46875 27.518763 187.29688Q27.675013 187.10938 27.956263 187.10938Q28.221888 187.10938 28.393763 187.29688Q28.550013 187.48438 28.550013 187.90625L28.550013 189.0Q28.550013 189.42188 28.393763 189.60938Q28.221888 189.79688 27.940638 189.79688Q27.675013 189.79688 27.518763 189.625Q27.346888 189.4375 27.346888 189.04688L25.081263 189.04688Q24.690638 189.04688 24.503138 189.26562Q24.268763 189.54688 24.268763 190.09375Q24.268763 190.5 24.440638 190.82812Q24.596888 191.14062 25.112513 191.60938L27.346888 191.60938Q27.346888 191.15625 27.440638 191.01562Q27.612513 190.73438 27.956263 190.73438Q28.221888 190.73438 28.393763 190.92188Q28.550013 191.09375 28.550013 191.53125L28.550013 192.89062Q28.550013 193.32812 28.393763 193.51562Q28.221888 193.70312 27.940638 193.70312Q27.612513 193.70312 27.440638 193.42188Q27.346888 193.28125 27.346888 192.8125L24.425013 192.8125Q24.425013 193.20312 24.268763 193.39062Q24.096888 193.5625 23.831263 193.5625Q23.565638 193.5625 23.393763 193.375Q23.221888 193.1875 23.221888 192.75L23.221888 191.60938ZM23.221888 180.84375L27.346888 180.84375Q27.346888 180.46875 27.518763 180.29688Q27.690638 180.10938 27.956263 180.10938Q28.221888 180.10938 28.393763 180.29688Q28.550013 180.46875 28.550013 180.90625L28.550013 182.04688L28.268763 182.04688Q28.503138 182.5625 28.612513 183.03125Q28.737513 183.5 28.737513 183.92188Q28.737513 184.51562 28.487513 184.95312Q28.237513 185.375 27.800013 185.64062Q27.487513 185.8125 27.018763 185.8125L24.425013 185.8125L24.425013 186.01562Q24.425013 186.45312 24.268763 186.64062Q24.096888 186.82812 23.831263 186.82812Q23.565638 186.82812 23.393763 186.64062Q23.221888 186.45312 23.221888 186.01562L23.221888 184.60938L26.800013 184.60938Q27.190638 184.60938 27.362513 184.4375Q27.534388 184.25 27.534388 183.85938Q27.534388 183.5 27.393763 183.07812Q27.253138 182.65625 26.878138 182.04688L24.425013 182.04688L24.425013 182.48438Q24.425013 182.92188 24.268763 183.10938Q24.096888 183.28125 23.831263 183.28125Q23.565638 183.28125 23.393763 183.10938Q23.221888 182.92188 23.221888 182.48438L23.221888 180.84375ZM26.503138 173.39062L26.503138 178.3125Q26.971888 178.125 27.253138 177.65625Q27.534388 177.17188 27.534388 176.35938Q27.534388 175.6875 27.253138 174.57812Q27.143763 174.125 27.143763 173.95312Q27.143763 173.70312 27.315638 173.54688Q27.471888 173.375 27.737513 173.375Q27.971888 173.375 28.128138 173.54688Q28.346888 173.78125 28.550013 174.70312Q28.737513 175.60938 28.737513 176.4375Q28.737513 177.89062 27.925013 178.75Q27.112513 179.60938 25.925013 179.60938Q24.659388 179.60938 23.862513 178.6875Q23.065638 177.75 23.065638 176.53125Q23.065638 175.79688 23.331263 175.1875Q23.581263 174.5625 23.878138 174.26562Q24.315638 173.84375 24.956263 173.57812Q25.409388 173.39062 25.987513 173.39062L26.503138 173.39062ZM25.300013 174.71875Q24.784388 174.98438 24.534388 175.4375Q24.268763 175.875 24.268763 176.5Q24.268763 177.10938 24.534388 177.5625Q24.784388 178.0 25.300013 178.28125L25.300013 174.71875ZM20.956263 161.96875L22.221888 161.96875L22.221888 163.39062L20.956263 163.39062L20.956263 161.96875ZM23.221888 161.79688L27.346888 161.79688L27.346888 160.35938Q27.346888 159.92188 27.518763 159.75Q27.675013 159.5625 27.956263 159.5625Q28.221888 159.5625 28.393763 159.75Q28.550013 159.92188 28.550013 160.35938L28.550013 164.45312Q28.550013 164.875 28.393763 165.0625Q28.221888 165.25 27.940638 165.25Q27.675013 165.25 27.518763 165.0625Q27.346888 164.875 27.346888 164.45312L27.346888 163.0L24.425013 163.0L24.425013 163.96875Q24.425013 164.40625 24.268763 164.59375Q24.096888 164.78125 23.831263 164.78125Q23.565638 164.78125 23.393763 164.59375Q23.221888 164.40625 23.221888 163.96875L23.221888 161.79688ZM23.221888 156.60938L23.628138 156.60938Q23.346888 156.28125 23.206263 155.89062Q23.065638 155.5 23.065638 155.03125Q23.065638 153.96875 23.737513 153.34375Q24.253138 152.85938 25.112513 152.85938L27.346888 152.85938Q27.346888 152.46875 27.518763 152.29688Q27.675013 152.10938 27.956263 152.10938Q28.221888 152.10938 28.393763 152.29688Q28.550013 152.48438 28.550013 152.90625L28.550013 154.0Q28.550013 154.42188 28.393763 154.60938Q28.221888 154.79688 27.940638 154.79688Q27.675013 154.79688 27.518763 154.625Q27.346888 154.4375 27.346888 154.04688L25.081263 154.04688Q24.690638 154.04688 24.503138 154.26562Q24.268763 154.54688 24.268763 155.09375Q24.268763 155.5 24.440638 155.82812Q24.596888 156.14062 25.112513 156.60938L27.346888 156.60938Q27.346888 156.15625 27.440638 156.01562Q27.612513 155.73438 27.956263 155.73438Q28.221888 155.73438 28.393763 155.92188Q28.550013 156.09375 28.550013 156.53125L28.550013 157.89062Q28.550013 158.32812 28.393763 158.51562Q28.221888 158.70312 27.940638 158.70312Q27.612513 158.70312 27.440638 158.42188Q27.346888 158.28125 27.346888 157.8125L24.425013 157.8125Q24.425013 158.20312 24.268763 158.39062Q24.096888 158.5625 23.831263 158.5625Q23.565638 158.5625 23.393763 158.375Q23.221888 158.1875 23.221888 157.75L23.221888 156.60938ZM27.346888 143.84375L22.643763 143.84375L22.643763 144.03125Q22.643763 144.46875 22.487513 144.65625Q22.315638 144.84375 22.050013 144.84375Q21.768763 144.84375 21.612513 144.65625Q21.440638 144.46875 21.440638 144.03125L21.440638 141.03125Q21.440638 139.95312 22.050013 139.29688Q22.643763 138.64062 23.471888 138.64062Q23.862513 138.64062 24.206263 138.79688Q24.550013 138.9375 24.846888 139.25Q25.190638 138.6875 25.643763 138.40625Q26.096888 138.10938 26.675013 138.10938Q27.128138 138.10938 27.518763 138.3125Q27.815638 138.46875 27.987513 138.6875Q28.237513 139.0 28.393763 139.4375Q28.550013 139.85938 28.550013 140.51562L28.550013 144.03125Q28.550013 144.46875 28.393763 144.65625Q28.221888 144.84375 27.940638 144.84375Q27.675013 144.84375 27.518763 144.65625Q27.346888 144.46875 27.346888 144.03125L27.346888 143.84375ZM24.393763 142.65625L24.393763 141.32812Q24.393763 140.625 24.034388 140.15625Q23.800013 139.84375 23.440638 139.84375Q23.128138 139.84375 22.893763 140.14062Q22.643763 140.4375 22.643763 141.07812L22.643763 142.65625L24.393763 142.65625ZM27.346888 142.65625L27.346888 140.57812Q27.346888 139.84375 27.128138 139.54688Q26.971888 139.3125 26.659388 139.3125Q26.300013 139.3125 25.956263 139.76562Q25.596888 140.21875 25.596888 141.0625L25.596888 142.65625L27.346888 142.65625ZM20.956263 133.96875L22.221888 133.96875L22.221888 135.39062L20.956263 135.39062L20.956263 133.96875ZM23.221888 133.79688L27.346888 133.79688L27.346888 132.35938Q27.346888 131.92188 27.518763 131.75Q27.675013 131.5625 27.956263 131.5625Q28.221888 131.5625 28.393763 131.75Q28.550013 131.92188 28.550013 132.35938L28.550013 136.45312Q28.550013 136.875 28.393763 137.0625Q28.221888 137.25 27.940638 137.25Q27.675013 137.25 27.518763 137.0625Q27.346888 136.875 27.346888 136.45312L27.346888 135.0L24.425013 135.0L24.425013 135.96875Q24.425013 136.40625 24.268763 136.59375Q24.096888 136.78125 23.831263 136.78125Q23.565638 136.78125 23.393763 136.59375Q23.221888 136.40625 23.221888 135.96875L23.221888 133.79688ZM20.956263 126.796875L27.346888 126.796875L27.346888 125.359375Q27.346888 124.921875 27.518763 124.734375Q27.675013 124.546875 27.956263 124.546875Q28.221888 124.546875 28.393763 124.734375Q28.550013 124.921875 28.550013 125.359375L28.550013 129.4375Q28.550013 129.875 28.393763 130.0625Q28.221888 130.25 27.940638 130.25Q27.675013 130.25 27.518763 130.0625Q27.346888 129.875 27.346888 129.4375L27.346888 128.0L22.143763 128.0L22.143763 128.96875Q22.143763 129.39062 21.987513 129.57812Q21.815638 129.76562 21.550013 129.76562Q21.284388 129.76562 21.128138 129.59375Q20.956263 129.40625 20.956263 128.96875L20.956263 126.796875ZM20.956263 119.796875L27.346888 119.796875L27.346888 118.359375Q27.346888 117.921875 27.518763 117.734375Q27.675013 117.546875 27.956263 117.546875Q28.221888 117.546875 28.393763 117.734375Q28.550013 117.921875 28.550013 118.359375L28.550013 122.4375Q28.550013 122.875 28.393763 123.0625Q28.221888 123.25 27.940638 123.25Q27.675013 123.25 27.518763 123.0625Q27.346888 122.875 27.346888 122.4375L27.346888 121.0L22.143763 121.0L22.143763 121.96875Q22.143763 122.390625 21.987513 122.578125Q21.815638 122.765625 21.550013 122.765625Q21.284388 122.765625 21.128138 122.59375Q20.956263 122.40625 20.956263 121.96875L20.956263 119.796875ZM20.956263 112.96875L22.221888 112.96875L22.221888 114.390625L20.956263 114.390625L20.956263 112.96875ZM23.221888 112.796875L27.346888 112.796875L27.346888 111.359375Q27.346888 110.921875 27.518763 110.75Q27.675013 110.5625 27.956263 110.5625Q28.221888 110.5625 28.393763 110.75Q28.550013 110.921875 28.550013 111.359375L28.550013 115.453125Q28.550013 115.875 28.393763 116.0625Q28.221888 116.25 27.940638 116.25Q27.675013 116.25 27.518763 116.0625Q27.346888 115.875 27.346888 115.453125L27.346888 114.0L24.425013 114.0L24.425013 114.96875Q24.425013 115.40625 24.268763 115.59375Q24.096888 115.78125 23.831263 115.78125Q23.565638 115.78125 23.393763 115.59375Q23.221888 115.40625 23.221888 114.96875L23.221888 112.796875ZM25.987513 103.28125Q26.675013 103.28125 27.331263 103.671875Q27.971888 104.046875 28.362513 104.8125Q28.737513 105.5625 28.737513 106.390625Q28.737513 107.203125 28.362513 107.953125Q27.987513 108.703125 27.346888 109.109375Q26.690638 109.5 25.971888 109.5Q25.253138 109.5 24.565638 109.109375Q23.862513 108.703125 23.471888 107.953125Q23.065638 107.203125 23.065638 106.390625Q23.065638 105.5625 23.471888 104.8125Q23.878138 104.046875 24.581263 103.671875Q25.268763 103.28125 25.987513 103.28125ZM25.987513 104.484375Q25.409388 104.484375 24.925013 104.890625Q24.268763 105.46875 24.268763 106.390625Q24.268763 107.203125 24.800013 107.75Q25.315638 108.296875 26.003138 108.296875Q26.565638 108.296875 27.050013 107.75Q27.534388 107.1875 27.534388 106.390625Q27.534388 105.578125 27.050013 105.03125Q26.565638 104.484375 25.987513 104.484375ZM23.221888 100.609375L23.628138 100.609375Q23.346888 100.28125 23.206263 99.890625Q23.065638 99.5 23.065638 99.03125Q23.065638 97.96875 23.737513 97.34375Q24.253138 96.859375 25.112513 96.859375L27.346888 96.859375Q27.346888 96.46875 27.518763 96.296875Q27.675013 96.109375 27.956263 96.109375Q28.221888 96.109375 28.393763 96.296875Q28.550013 96.484375 28.550013 96.90625L28.550013 98.0Q28.550013 98.421875 28.393763 98.609375Q28.221888 98.796875 27.940638 98.796875Q27.675013 98.796875 27.518763 98.625Q27.346888 98.4375 27.346888 98.046875L25.081263 98.046875Q24.690638 98.046875 24.503138 98.265625Q24.268763 98.546875 24.268763 99.09375Q24.268763 99.5 24.440638 99.828125Q24.596888 100.140625 25.112513 100.609375L27.346888 100.609375Q27.346888 100.15625 27.440638 100.015625Q27.612513 99.734375 27.956263 99.734375Q28.221888 99.734375 28.393763 99.921875Q28.550013 100.09375 28.550013 100.53125L28.550013 101.890625Q28.550013 102.328125 28.393763 102.515625Q28.221888 102.703125 27.940638 102.703125Q27.612513 102.703125 27.440638 102.421875Q27.346888 102.28125 27.346888 101.8125L24.425013 101.8125Q24.425013 102.203125 24.268763 102.390625Q24.096888 102.5625 23.831263 102.5625Q23.565638 102.5625 23.393763 102.375Q23.221888 102.1875 23.221888 101.75L23.221888 100.609375ZM22.643763 82.65625L26.050013 82.65625Q27.159388 82.65625 27.940638 83.453125Q28.721888 84.25 28.721888 85.375Q28.721888 85.9375 28.534388 86.421875Q28.331263 86.90625 27.956263 87.296875Q27.565638 87.6875 27.159388 87.90625Q26.737513 88.125 26.050013 88.125L22.643763 88.125Q22.643763 88.5 22.487513 88.6875Q22.315638 88.875 22.050013 88.875Q21.768763 88.875 21.612513 88.6875Q21.440638 88.5 21.440638 88.0625L21.440638 86.484375Q21.440638 86.0625 21.612513 85.875Q21.768763 85.6875 22.050013 85.6875Q22.315638 85.6875 22.487513 85.875Q22.643763 86.0625 22.643763 86.484375L22.643763 86.921875L26.159388 86.921875Q26.690638 86.921875 27.112513 86.484375Q27.518763 86.03125 27.518763 85.390625Q27.518763 84.96875 27.331263 84.609375Q27.128138 84.234375 26.737513 84.0Q26.503138 83.859375 26.159388 83.859375L22.643763 83.859375L22.643763 84.28125Q22.643763 84.71875 22.487513 84.90625Q22.315638 85.09375 22.050013 85.09375Q21.768763 85.09375 21.612513 84.90625Q21.440638 84.71875 21.440638 84.28125L21.440638 82.71875Q21.440638 82.28125 21.612513 82.09375Q21.768763 81.90625 22.050013 81.90625Q22.315638 81.90625 22.487513 82.09375Q22.643763 82.265625 22.643763 82.65625ZM28.237513 80.15625Q28.425013 80.3125 28.487513 80.40625Q28.534388 80.5 28.534388 80.640625Q28.534388 80.921875 28.362513 81.09375Q28.175013 81.25 27.737513 81.25L26.925013 81.25Q26.503138 81.25 26.315638 81.09375Q26.128138 80.921875 26.128138 80.640625Q26.128138 80.4375 26.237513 80.296875Q26.346888 80.140625 26.612513 80.078125Q26.878138 80.0 26.971888 79.90625Q27.143763 79.75 27.331263 79.3125Q27.518763 78.875 27.518763 78.359375Q27.518763 77.5625 27.143763 77.046875Q26.925013 76.71875 26.581263 76.71875Q26.362513 76.71875 26.175013 76.875Q25.971888 77.03125 25.846888 77.390625Q25.753138 77.625 25.596888 78.4375Q25.425013 79.421875 25.175013 79.921875Q24.909388 80.421875 24.440638 80.71875Q23.971888 81.015625 23.425013 81.015625Q22.565638 81.015625 21.925013 80.296875Q21.268763 79.578125 21.268763 78.421875Q21.268763 77.953125 21.378138 77.5625Q21.471888 77.171875 21.675013 76.84375Q21.456263 76.609375 21.456263 76.375Q21.456263 76.109375 21.643763 75.953125Q21.815638 75.78125 22.253138 75.78125L23.159388 75.78125Q23.581263 75.78125 23.768763 75.953125Q23.956263 76.109375 23.956263 76.375Q23.956263 76.59375 23.815638 76.765625Q23.721888 76.890625 23.425013 76.953125Q23.128138 77.015625 22.987513 77.125Q22.768763 77.28125 22.628138 77.625Q22.471888 77.96875 22.471888 78.40625Q22.471888 79.0625 22.768763 79.4375Q23.065638 79.8125 23.393763 79.8125Q23.628138 79.8125 23.831263 79.671875Q24.034388 79.515625 24.159388 79.203125Q24.237513 79.015625 24.425013 78.09375Q24.596888 77.171875 24.815638 76.671875Q25.034388 76.171875 25.503138 75.84375Q25.956263 75.515625 26.596888 75.515625Q27.487513 75.515625 28.018763 76.140625Q28.721888 76.984375 28.721888 78.265625Q28.721888 78.765625 28.596888 79.234375Q28.487513 79.703125 28.237513 80.15625ZM27.346888 74.078125L22.643763 74.078125Q22.643763 74.46875 22.487513 74.65625Q22.315638 74.828125 22.050013 74.828125Q21.768763 74.828125 21.612513 74.640625Q21.440638 74.453125 21.440638 74.03125L21.440638 71.515625Q21.440638 70.921875 21.659388 70.375Q21.878138 69.8125 22.221888 69.46875Q22.471888 69.203125 22.909388 68.9375Q23.346888 68.65625 23.784388 68.515625Q24.206263 68.375 24.846888 68.375L25.409388 68.375Q26.175013 68.375 26.768763 68.640625Q27.346888 68.890625 27.721888 69.3125Q28.096888 69.71875 28.268763 70.09375Q28.550013 70.6875 28.550013 71.609375L28.550013 74.03125Q28.550013 74.453125 28.393763 74.640625Q28.221888 74.828125 27.940638 74.828125Q27.675013 74.828125 27.518763 74.640625Q27.346888 74.453125 27.346888 74.078125ZM27.346888 72.890625L27.346888 71.609375Q27.346888 70.890625 27.143763 70.53125Q26.878138 70.046875 26.456263 69.8125Q26.034388 69.578125 25.378138 69.578125L24.815638 69.578125Q24.237513 69.578125 23.815638 69.796875Q23.143763 70.125 22.893763 70.5625Q22.643763 70.984375 22.643763 71.625L22.643763 72.890625L27.346888 72.890625Z" fill-rule="nonzero"/><path fill="#000000" d="M70.76875 298.9969L70.76875 300.3094Q70.76875 301.48126 70.09688 302.5594Q69.425 303.6219 68.15938 303.6219Q67.44063 303.6219 66.925 303.3094Q66.425 302.98126 65.97188 302.1219Q65.53438 301.2625 65.53438 300.3094L65.53438 298.9969Q65.53438 297.825 66.20625 296.7469Q66.87813 295.66876 68.14375 295.66876Q68.8625 295.66876 69.3625 295.9969Q69.8625 296.3094 70.31563 297.16876Q70.76875 298.02814 70.76875 298.9969ZM69.56563 298.9969Q69.56563 298.0125 69.01875 297.27814Q68.70625 296.8719 68.14375 296.8719Q67.59688 296.8719 67.25313 297.325Q66.7375 297.9969 66.7375 298.9969L66.7375 300.3094Q66.7375 301.29376 67.28438 302.0125Q67.59688 302.41876 68.15938 302.41876Q68.70625 302.41876 69.05 301.98126Q69.56563 301.3094 69.56563 300.3094L69.56563 298.9969Z" fill-rule="nonzero"/><path fill="#000000" d="M60.034374 233.52188L62.659374 233.52188Q62.878124 233.35 63.065624 233.35Q63.346874 233.35 63.503124 233.5375Q63.675 233.70938 63.675 234.14688L63.675 234.725L58.190624 234.725L58.190624 233.45938Q61.440624 230.77188 62.1125 230.00626Q62.45625 229.61563 62.45625 229.25626Q62.45625 228.81876 62.065624 228.49063Q61.690624 228.14688 61.05 228.14688Q60.409374 228.14688 59.971874 228.52188Q59.753124 228.725 59.6125 229.11563Q59.534374 229.36563 59.39375 229.475Q59.253124 229.56876 59.034374 229.56876Q58.8 229.56876 58.6125 229.39688Q58.440624 229.225 58.440624 228.99063Q58.440624 228.63126 58.753124 228.11563Q59.08125 227.58438 59.70625 227.27188Q60.33125 226.94376 61.065624 226.94376Q62.20625 226.94376 62.925 227.63126Q63.659374 228.31876 63.659374 229.30313Q63.659374 229.80313 63.440624 230.225Q63.2375 230.64688 62.45625 231.39688Q61.83125 231.99063 60.034374 233.52188ZM70.76875 230.27188L70.76875 231.58438Q70.76875 232.75626 70.09688 233.83438Q69.425 234.89688 68.15938 234.89688Q67.44063 234.89688 66.925 234.58438Q66.425 234.25626 65.97188 233.39688Q65.53438 232.5375 65.53438 231.58438L65.53438 230.27188Q65.53438 229.1 66.20625 228.02188Q66.87813 226.94376 68.14375 226.94376Q68.8625 226.94376 69.3625 227.27188Q69.8625 227.58438 70.31563 228.44376Q70.76875 229.30313 70.76875 230.27188ZM69.56563 230.27188Q69.56563 229.2875 69.01875 228.55313Q68.70625 228.14688 68.14375 228.14688Q67.59688 228.14688 67.25313 228.6Q66.7375 229.27188 66.7375 230.27188L66.7375 231.58438Q66.7375 232.56876 67.28438 233.2875Q67.59688 233.69376 68.15938 233.69376Q68.70625 233.69376 69.05 233.25626Q69.56563 232.58438 69.56563 231.58438L69.56563 230.27188Z" fill-rule="nonzero"/><path fill="#000000" d="M62.909374 158.42188L62.909374 163.10938Q63.3 163.10938 63.471874 163.28125Q63.659374 163.45312 63.659374 163.71875Q63.659374 163.98438 63.471874 164.15625Q63.284374 164.3125 62.909374 164.3125L62.909374 164.79688Q63.3 164.79688 63.471874 164.96875Q63.659374 165.14062 63.659374 165.40625Q63.659374 165.67188 63.471874 165.84375Q63.284374 166.0 62.846874 166.0L61.2375 166.0Q60.815624 166.0 60.628124 165.84375Q60.440624 165.67188 60.440624 165.39062Q60.440624 165.125 60.628124 164.96875Q60.815624 164.79688 61.2375 164.79688L61.70625 164.79688L61.70625 164.3125L58.440624 164.3125L58.440624 163.3125L61.33125 158.42188L62.909374 158.42188ZM61.70625 163.10938L61.70625 160.15625L59.971874 163.10938L61.70625 163.10938ZM70.76875 161.54688L70.76875 162.85938Q70.76875 164.03125 70.09688 165.10938Q69.425 166.17188 68.15938 166.17188Q67.44063 166.17188 66.925 165.85938Q66.425 165.53125 65.97188 164.67188Q65.53438 163.8125 65.53438 162.85938L65.53438 161.54688Q65.53438 160.375 66.20625 159.29688Q66.87813 158.21875 68.14375 158.21875Q68.8625 158.21875 69.3625 158.54688Q69.8625 158.85938 70.31563 159.71875Q70.76875 160.57812 70.76875 161.54688ZM69.56563 161.54688Q69.56563 160.5625 69.01875 159.82812Q68.70625 159.42188 68.14375 159.42188Q67.59688 159.42188 67.25313 159.875Q66.7375 160.54688 66.7375 161.54688L66.7375 162.85938Q66.7375 163.84375 67.28438 164.5625Q67.59688 164.96875 68.15938 164.96875Q68.70625 164.96875 69.05 164.53125Q69.56563 163.85938 69.56563 162.85938L69.56563 161.54688Z" fill-rule="nonzero"/><path fill="#000000" d="M60.01875 93.16563Q60.45625 92.80625 60.846874 92.65Q61.2375 92.47813 61.690624 92.47813Q62.628124 92.47813 63.33125 93.22813Q64.05 93.97813 64.05 95.10313Q64.05 96.15 63.39375 96.80625Q62.7375 97.44688 61.596874 97.44688Q60.659374 97.44688 60.05 97.00938Q59.440624 96.57188 59.128124 95.66563Q58.815624 94.74375 58.815624 93.61875Q58.815624 92.275 59.425 91.38438Q60.05 90.47813 60.878124 89.99375Q61.70625 89.49375 62.64375 89.49375Q63.3625 89.49375 63.76875 89.79063Q64.03438 89.97813 64.03438 90.275Q64.03438 90.54063 63.8625 90.72813Q63.690624 90.9 63.440624 90.9Q63.3 90.9 63.034374 90.75938Q62.878124 90.68125 62.7375 90.68125Q62.159374 90.68125 61.534374 91.00938Q60.925 91.32188 60.471874 91.99375Q60.159374 92.4625 60.01875 93.16563ZM60.20625 95.025Q60.39375 95.72813 60.70625 95.99375Q61.01875 96.24375 61.6125 96.24375Q62.20625 96.24375 62.51875 95.94688Q62.846874 95.63438 62.846874 95.0875Q62.846874 94.47813 62.471874 94.0875Q62.1125 93.68125 61.659374 93.68125Q61.3 93.68125 60.878124 94.04063Q60.471874 94.38438 60.20625 95.025ZM70.76875 92.82188L70.76875 94.13438Q70.76875 95.30625 70.09688 96.38438Q69.425 97.44688 68.15938 97.44688Q67.44063 97.44688 66.925 97.13438Q66.425 96.80625 65.97188 95.94688Q65.53438 95.0875 65.53438 94.13438L65.53438 92.82188Q65.53438 91.65 66.20625 90.57188Q66.87813 89.49375 68.14375 89.49375Q68.8625 89.49375 69.3625 89.82188Q69.8625 90.13438 70.31563 90.99375Q70.76875 91.85313 70.76875 92.82188ZM69.56563 92.82188Q69.56563 91.8375 69.01875 91.10313Q68.70625 90.69688 68.14375 90.69688Q67.59688 90.69688 67.25313 91.15Q66.7375 91.82188 66.7375 92.82188L66.7375 94.13438Q66.7375 95.11875 67.28438 95.8375Q67.59688 96.24375 68.15938 96.24375Q68.70625 96.24375 69.05 95.80625Q69.56563 95.13438 69.56563 94.13438L69.56563 92.82188Z" fill-rule="nonzero"/><path fill="#000000" d="M62.846874 24.70625Q63.315624 25.065624 63.55 25.51875Q63.784374 25.971874 63.784374 26.51875Q63.784374 27.128124 63.4875 27.64375Q63.190624 28.14375 62.55 28.440624Q61.925 28.721874 61.14375 28.721874Q60.378124 28.721874 59.753124 28.440624Q59.128124 28.14375 58.83125 27.628124Q58.534374 27.1125 58.534374 26.51875Q58.534374 25.971874 58.76875 25.51875Q59.003124 25.065624 59.471874 24.70625Q59.065624 24.33125 58.8625 23.909374Q58.659374 23.4875 58.659374 23.01875Q58.659374 22.096874 59.3625 21.440624Q60.065624 20.76875 61.159374 20.76875Q62.26875 20.76875 62.971874 21.440624Q63.675 22.096874 63.675 23.01875Q63.675 23.503124 63.471874 23.925Q63.26875 24.346874 62.846874 24.70625ZM62.440624 23.05Q62.440624 22.596874 62.08125 22.284374Q61.7375 21.971874 61.14375 21.971874Q60.55 21.971874 60.190624 22.284374Q59.846874 22.596874 59.846874 23.05Q59.846874 23.503124 60.190624 23.815624Q60.55 24.128124 61.14375 24.128124Q61.7375 24.128124 62.08125 23.815624Q62.440624 23.503124 62.440624 23.05ZM62.58125 26.58125Q62.58125 26.1125 62.175 25.721874Q61.76875 25.33125 61.159374 25.33125Q60.55 25.33125 60.14375 25.721874Q59.7375 26.1125 59.7375 26.596874Q59.7375 26.971874 60.08125 27.253124Q60.440624 27.51875 61.159374 27.51875Q61.878124 27.51875 62.221874 27.253124Q62.58125 26.971874 62.58125 26.58125ZM70.76875 24.096874L70.76875 25.409374Q70.76875 26.58125 70.09688 27.659374Q69.425 28.721874 68.15938 28.721874Q67.44063 28.721874 66.925 28.409374Q66.425 28.08125 65.97188 27.221874Q65.53438 26.3625 65.53438 25.409374L65.53438 24.096874Q65.53438 22.925 66.20625 21.846874Q66.87813 20.76875 68.14375 20.76875Q68.8625 20.76875 69.3625 21.096874Q69.8625 21.409374 70.31563 22.26875Q70.76875 23.128124 70.76875 24.096874ZM69.56563 24.096874Q69.56563 23.1125 69.01875 22.378124Q68.70625 21.971874 68.14375 21.971874Q67.59688 21.971874 67.25313 22.425Q66.7375 23.096874 66.7375 24.096874L66.7375 25.409374Q66.7375 26.39375 67.28438 27.1125Q67.59688 27.51875 68.15938 27.51875Q68.70625 27.51875 69.05 27.08125Q69.56563 26.409374 69.56563 25.409374L69.56563 24.096874Z" fill-rule="nonzero"/><path fill="#000000" d="M129.61053 315.2469L132.23553 315.2469Q132.45428 315.075 132.64178 315.075Q132.92303 315.075 133.07928 315.2625Q133.25116 315.4344 133.25116 315.8719L133.25116 316.45L127.76679 316.45L127.76679 315.1844Q131.01678 312.4969 131.68866 311.73126Q132.03241 311.34064 132.03241 310.98126Q132.03241 310.54376 131.64178 310.21564Q131.26678 309.8719 130.62616 309.8719Q129.98553 309.8719 129.54803 310.2469Q129.32928 310.45 129.18866 310.84064Q129.11053 311.09064 128.96991 311.2Q128.82928 311.29376 128.61053 311.29376Q128.37616 311.29376 128.18866 311.1219Q128.01678 310.95 128.01678 310.71564Q128.01678 310.35626 128.32928 309.84064Q128.65741 309.3094 129.28241 308.9969Q129.90741 308.66876 130.64178 308.66876Q131.78241 308.66876 132.50116 309.35626Q133.23553 310.04376 133.23553 311.02814Q133.23553 311.52814 133.01678 311.95Q132.81366 312.3719 132.03241 313.1219Q131.40741 313.71564 129.61053 315.2469ZM140.34491 311.9969L140.34491 313.3094Q140.34491 314.48126 139.67303 315.5594Q139.00116 316.6219 137.73553 316.6219Q137.01678 316.6219 136.50116 316.3094Q136.00116 315.98126 135.54803 315.1219Q135.11053 314.2625 135.11053 313.3094L135.11053 311.9969Q135.11053 310.825 135.78241 309.7469Q136.45428 308.66876 137.71991 308.66876Q138.43866 308.66876 138.93866 308.9969Q139.43866 309.3094 139.89178 310.16876Q140.34491 311.02814 140.34491 311.9969ZM139.14178 311.9969Q139.14178 311.0125 138.59491 310.27814Q138.28241 309.8719 137.71991 309.8719Q137.17303 309.8719 136.82928 310.325Q136.31366 310.9969 136.31366 311.9969L136.31366 313.3094Q136.31366 314.29376 136.86053 315.0125Q137.17303 315.41876 137.73553 315.41876Q138.28241 315.41876 138.62616 314.98126Q139.14178 314.3094 139.14178 313.3094L139.14178 311.9969ZM145.34491 308.66876L145.34491 315.2469L146.54803 315.2469Q146.98553 315.2469 147.17303 315.41876Q147.36053 315.575 147.36053 315.85626Q147.36053 316.1219 147.17303 316.29376Q146.98553 316.45 146.54803 316.45L142.92303 316.45Q142.48553 316.45 142.29803 316.29376Q142.12616 316.1219 142.12616 315.84064Q142.12616 315.575 142.29803 315.41876Q142.48553 315.2469 142.92303 315.2469L144.14178 315.2469L144.14178 310.23126L143.06366 310.5125Q142.81366 310.59064 142.67303 310.59064Q142.45428 310.59064 142.28241 310.41876Q142.11053 310.23126 142.11053 309.96564Q142.11053 309.71564 142.23553 309.59064Q142.36053 309.45 142.75116 309.34064L145.34491 308.66876ZM152.96991 310.075L150.21991 310.075Q150.18866 310.41876 150.03241 310.575Q149.87616 310.73126 149.62616 310.73126Q149.34491 310.73126 149.17303 310.5594Q149.01678 310.3719 149.01678 309.9344L149.01678 308.8719L154.23553 308.8719L154.23553 310.075L152.28241 315.85626Q152.15741 316.21564 152.00116 316.34064Q151.86053 316.46564 151.65741 316.46564Q151.40741 316.46564 151.21991 316.29376Q151.04803 316.10626 151.04803 315.8875Q151.04803 315.7469 151.14178 315.46564L152.96991 310.075Z" fill-rule="nonzero"/><path fill="#000000" d="M223.79745 315.2469L226.42245 315.2469Q226.6412 315.075 226.8287 315.075Q227.10995 315.075 227.2662 315.2625Q227.43808 315.4344 227.43808 315.8719L227.43808 316.45L221.9537 316.45L221.9537 315.1844Q225.2037 312.4969 225.87558 311.73126Q226.21933 311.34064 226.21933 310.98126Q226.21933 310.54376 225.8287 310.21564Q225.4537 309.8719 224.81308 309.8719Q224.17245 309.8719 223.73495 310.2469Q223.5162 310.45 223.37558 310.84064Q223.29745 311.09064 223.15683 311.2Q223.0162 311.29376 222.79745 311.29376Q222.56308 311.29376 222.37558 311.1219Q222.2037 310.95 222.2037 310.71564Q222.2037 310.35626 222.5162 309.84064Q222.84433 309.3094 223.46933 308.9969Q224.09433 308.66876 224.8287 308.66876Q225.96933 308.66876 226.68808 309.35626Q227.42245 310.04376 227.42245 311.02814Q227.42245 311.52814 227.2037 311.95Q227.00058 312.3719 226.21933 313.1219Q225.59433 313.71564 223.79745 315.2469ZM234.53183 311.9969L234.53183 313.3094Q234.53183 314.48126 233.85995 315.5594Q233.18808 316.6219 231.92245 316.6219Q231.2037 316.6219 230.68808 316.3094Q230.18808 315.98126 229.73495 315.1219Q229.29745 314.2625 229.29745 313.3094L229.29745 311.9969Q229.29745 310.825 229.96933 309.7469Q230.6412 308.66876 231.90683 308.66876Q232.62558 308.66876 233.12558 308.9969Q233.62558 309.3094 234.0787 310.16876Q234.53183 311.02814 234.53183 311.9969ZM233.3287 311.9969Q233.3287 311.0125 232.78183 310.27814Q232.46933 309.8719 231.90683 309.8719Q231.35995 309.8719 231.0162 310.325Q230.50058 310.9969 230.50058 311.9969L230.50058 313.3094Q230.50058 314.29376 231.04745 315.0125Q231.35995 315.41876 231.92245 315.41876Q232.46933 315.41876 232.81308 314.98126Q233.3287 314.3094 233.3287 313.3094L233.3287 311.9969ZM239.53183 308.66876L239.53183 315.2469L240.73495 315.2469Q241.17245 315.2469 241.35995 315.41876Q241.54745 315.575 241.54745 315.85626Q241.54745 316.1219 241.35995 316.29376Q241.17245 316.45 240.73495 316.45L237.10995 316.45Q236.67245 316.45 236.48495 316.29376Q236.31308 316.1219 236.31308 315.84064Q236.31308 315.575 236.48495 315.41876Q236.67245 315.2469 237.10995 315.2469L238.3287 315.2469L238.3287 310.23126L237.25058 310.5125Q237.00058 310.59064 236.85995 310.59064Q236.6412 310.59064 236.46933 310.41876Q236.29745 310.23126 236.29745 309.96564Q236.29745 309.71564 236.42245 309.59064Q236.54745 309.45 236.93808 309.34064L239.53183 308.66876ZM247.60995 312.60626Q248.0787 312.96564 248.31308 313.41876Q248.54745 313.8719 248.54745 314.41876Q248.54745 315.02814 248.25058 315.54376Q247.9537 316.04376 247.31308 316.34064Q246.68808 316.6219 245.90683 316.6219Q245.1412 316.6219 244.5162 316.34064Q243.8912 316.04376 243.59433 315.52814Q243.29745 315.0125 243.29745 314.41876Q243.29745 313.8719 243.53183 313.41876Q243.7662 312.96564 244.23495 312.60626Q243.8287 312.23126 243.62558 311.8094Q243.42245 311.3875 243.42245 310.91876Q243.42245 309.9969 244.12558 309.34064Q244.8287 308.66876 245.92245 308.66876Q247.03183 308.66876 247.73495 309.34064Q248.43808 309.9969 248.43808 310.91876Q248.43808 311.40314 248.23495 311.825Q248.03183 312.2469 247.60995 312.60626ZM247.2037 310.95Q247.2037 310.4969 246.84433 310.1844Q246.50058 309.8719 245.90683 309.8719Q245.31308 309.8719 244.9537 310.1844Q244.60995 310.4969 244.60995 310.95Q244.60995 311.40314 244.9537 311.71564Q245.31308 312.02814 245.90683 312.02814Q246.50058 312.02814 246.84433 311.71564Q247.2037 311.40314 247.2037 310.95ZM247.34433 314.48126Q247.34433 314.0125 246.93808 313.6219Q246.53183 313.23126 245.92245 313.23126Q245.31308 313.23126 244.90683 313.6219Q244.50058 314.0125 244.50058 314.4969Q244.50058 314.8719 244.84433 315.15314Q245.2037 315.41876 245.92245 315.41876Q246.6412 315.41876 246.98495 315.15314Q247.34433 314.8719 247.34433 314.48126Z" fill-rule="nonzero"/><path fill="#000000" d="M317.98438 315.2469L320.60938 315.2469Q320.82812 315.075 321.01562 315.075Q321.29688 315.075 321.45312 315.2625Q321.625 315.4344 321.625 315.8719L321.625 316.45L316.14062 316.45L316.14062 315.1844Q319.39062 312.4969 320.0625 311.73126Q320.40625 311.34064 320.40625 310.98126Q320.40625 310.54376 320.01562 310.21564Q319.64062 309.8719 319.0 309.8719Q318.35938 309.8719 317.92188 310.2469Q317.70312 310.45 317.5625 310.84064Q317.48438 311.09064 317.34375 311.2Q317.20312 311.29376 316.98438 311.29376Q316.75 311.29376 316.5625 311.1219Q316.39062 310.95 316.39062 310.71564Q316.39062 310.35626 316.70312 309.84064Q317.03125 309.3094 317.65625 308.9969Q318.28125 308.66876 319.01562 308.66876Q320.15625 308.66876 320.875 309.35626Q321.60938 310.04376 321.60938 311.02814Q321.60938 311.52814 321.39062 311.95Q321.1875 312.3719 320.40625 313.1219Q319.78125 313.71564 317.98438 315.2469ZM328.71875 311.9969L328.71875 313.3094Q328.71875 314.48126 328.04688 315.5594Q327.375 316.6219 326.10938 316.6219Q325.39062 316.6219 324.875 316.3094Q324.375 315.98126 323.92188 315.1219Q323.48438 314.2625 323.48438 313.3094L323.48438 311.9969Q323.48438 310.825 324.15625 309.7469Q324.82812 308.66876 326.09375 308.66876Q326.8125 308.66876 327.3125 308.9969Q327.8125 309.3094 328.26562 310.16876Q328.71875 311.02814 328.71875 311.9969ZM327.51562 311.9969Q327.51562 311.0125 326.96875 310.27814Q326.65625 309.8719 326.09375 309.8719Q325.54688 309.8719 325.20312 310.325Q324.6875 310.9969 324.6875 311.9969L324.6875 313.3094Q324.6875 314.29376 325.23438 315.0125Q325.54688 315.41876 326.10938 315.41876Q326.65625 315.41876 327.0 314.98126Q327.51562 314.3094 327.51562 313.3094L327.51562 311.9969ZM333.71875 308.66876L333.71875 315.2469L334.92188 315.2469Q335.35938 315.2469 335.54688 315.41876Q335.73438 315.575 335.73438 315.85626Q335.73438 316.1219 335.54688 316.29376Q335.35938 316.45 334.92188 316.45L331.29688 316.45Q330.85938 316.45 330.67188 316.29376Q330.5 316.1219 330.5 315.84064Q330.5 315.575 330.67188 315.41876Q330.85938 315.2469 331.29688 315.2469L332.51562 315.2469L332.51562 310.23126L331.4375 310.5125Q331.1875 310.59064 331.04688 310.59064Q330.82812 310.59064 330.65625 310.41876Q330.48438 310.23126 330.48438 309.96564Q330.48438 309.71564 330.60938 309.59064Q330.73438 309.45 331.125 309.34064L333.71875 308.66876ZM341.79688 313.29376Q341.34375 313.6844 340.96875 313.85626Q340.59375 314.0125 340.17188 314.0125Q339.20312 314.0125 338.48438 313.2469Q337.76562 312.46564 337.76562 311.3094Q337.76562 310.41876 338.26562 309.6844Q338.9375 308.66876 340.17188 308.66876Q341.0625 308.66876 341.71875 309.2Q342.39062 309.73126 342.6875 310.73126Q343.0 311.73126 343.0 312.8094Q343.0 314.65314 341.57812 315.7625Q340.48438 316.6219 339.17188 316.6219Q338.4375 316.6219 338.04688 316.325Q337.76562 316.1375 337.76562 315.825Q337.76562 315.5594 337.9375 315.3875Q338.125 315.21564 338.375 315.21564Q338.51562 315.21564 338.6875 315.3094Q338.92188 315.41876 339.17188 315.41876Q340.07812 315.41876 340.84375 314.8094Q341.60938 314.1844 341.79688 313.29376ZM341.625 311.40314Q341.42188 310.575 341.04688 310.23126Q340.67188 309.8719 340.1875 309.8719Q339.67188 309.8719 339.3125 310.2625Q338.96875 310.65314 338.96875 311.29376Q338.96875 311.96564 339.32812 312.3875Q339.6875 312.8094 340.14062 312.8094Q340.95312 312.8094 341.625 311.40314Z" fill-rule="nonzero"/><path fill="#000000" d="M412.1713 315.2469L414.7963 315.2469Q415.01505 315.075 415.20255 315.075Q415.4838 315.075 415.64005 315.2625Q415.81192 315.4344 415.81192 315.8719L415.81192 316.45L410.32755 316.45L410.32755 315.1844Q413.57755 312.4969 414.24942 311.73126Q414.59317 311.34064 414.59317 310.98126Q414.59317 310.54376 414.20255 310.21564Q413.82755 309.8719 413.18692 309.8719Q412.5463 309.8719 412.1088 310.2469Q411.89005 310.45 411.74942 310.84064Q411.6713 311.09064 411.53067 311.2Q411.39005 311.29376 411.1713 311.29376Q410.93692 311.29376 410.74942 311.1219Q410.57755 310.95 410.57755 310.71564Q410.57755 310.35626 410.89005 309.84064Q411.21817 309.3094 411.84317 308.9969Q412.46817 308.66876 413.20255 308.66876Q414.34317 308.66876 415.06192 309.35626Q415.7963 310.04376 415.7963 311.02814Q415.7963 311.52814 415.57755 311.95Q415.37442 312.3719 414.59317 313.1219Q413.96817 313.71564 412.1713 315.2469ZM422.90567 311.9969L422.90567 313.3094Q422.90567 314.48126 422.2338 315.5594Q421.56192 316.6219 420.2963 316.6219Q419.57755 316.6219 419.06192 316.3094Q418.56192 315.98126 418.1088 315.1219Q417.6713 314.2625 417.6713 313.3094L417.6713 311.9969Q417.6713 310.825 418.34317 309.7469Q419.01505 308.66876 420.28067 308.66876Q420.99942 308.66876 421.49942 308.9969Q421.99942 309.3094 422.45255 310.16876Q422.90567 311.02814 422.90567 311.9969ZM421.70255 311.9969Q421.70255 311.0125 421.15567 310.27814Q420.84317 309.8719 420.28067 309.8719Q419.7338 309.8719 419.39005 310.325Q418.87442 310.9969 418.87442 311.9969L418.87442 313.3094Q418.87442 314.29376 419.4213 315.0125Q419.7338 315.41876 420.2963 315.41876Q420.84317 315.41876 421.18692 314.98126Q421.70255 314.3094 421.70255 313.3094L421.70255 311.9969ZM426.1713 315.2469L428.7963 315.2469Q429.01505 315.075 429.20255 315.075Q429.4838 315.075 429.64005 315.2625Q429.81192 315.4344 429.81192 315.8719L429.81192 316.45L424.32755 316.45L424.32755 315.1844Q427.57755 312.4969 428.24942 311.73126Q428.59317 311.34064 428.59317 310.98126Q428.59317 310.54376 428.20255 310.21564Q427.82755 309.8719 427.18692 309.8719Q426.5463 309.8719 426.1088 310.2469Q425.89005 310.45 425.74942 310.84064Q425.6713 311.09064 425.53067 311.2Q425.39005 311.29376 425.1713 311.29376Q424.93692 311.29376 424.74942 311.1219Q424.57755 310.95 424.57755 310.71564Q424.57755 310.35626 424.89005 309.84064Q425.21817 309.3094 425.84317 308.9969Q426.46817 308.66876 427.20255 308.66876Q428.34317 308.66876 429.06192 309.35626Q429.7963 310.04376 429.7963 311.02814Q429.7963 311.52814 429.57755 311.95Q429.37442 312.3719 428.59317 313.1219Q427.96817 313.71564 426.1713 315.2469ZM436.90567 311.9969L436.90567 313.3094Q436.90567 314.48126 436.2338 315.5594Q435.56192 316.6219 434.2963 316.6219Q433.57755 316.6219 433.06192 316.3094Q432.56192 315.98126 432.1088 315.1219Q431.6713 314.2625 431.6713 313.3094L431.6713 311.9969Q431.6713 310.825 432.34317 309.7469Q433.01505 308.66876 434.28067 308.66876Q434.99942 308.66876 435.49942 308.9969Q435.99942 309.3094 436.45255 310.16876Q436.90567 311.02814 436.90567 311.9969ZM435.70255 311.9969Q435.70255 311.0125 435.15567 310.27814Q434.84317 309.8719 434.28067 309.8719Q433.7338 309.8719 433.39005 310.325Q432.87442 310.9969 432.87442 311.9969L432.87442 313.3094Q432.87442 314.29376 433.4213 315.0125Q433.7338 315.41876 434.2963 315.41876Q434.84317 315.41876 435.18692 314.98126Q435.70255 314.3094 435.70255 313.3094L435.70255 311.9969Z" fill-rule="nonzero"/><path fill="#000000" d="M506.35822 315.2469L508.98322 315.2469Q509.20197 315.075 509.38947 315.075Q509.67072 315.075 509.82697 315.2625Q509.99884 315.4344 509.99884 315.8719L509.99884 316.45L504.51447 316.45L504.51447 315.1844Q507.76447 312.4969 508.43634 311.73126Q508.7801 311.34064 508.7801 310.98126Q508.7801 310.54376 508.38947 310.21564Q508.01447 309.8719 507.37384 309.8719Q506.73322 309.8719 506.29572 310.2469Q506.07697 310.45 505.93634 310.84064Q505.85822 311.09064 505.7176 311.2Q505.57697 311.29376 505.35822 311.29376Q505.12384 311.29376 504.93634 311.1219Q504.76447 310.95 504.76447 310.71564Q504.76447 310.35626 505.07697 309.84064Q505.4051 309.3094 506.0301 308.9969Q506.6551 308.66876 507.38947 308.66876Q508.5301 308.66876 509.24884 309.35626Q509.98322 310.04376 509.98322 311.02814Q509.98322 311.52814 509.76447 311.95Q509.56134 312.3719 508.7801 313.1219Q508.1551 313.71564 506.35822 315.2469ZM517.0926 311.9969L517.0926 313.3094Q517.0926 314.48126 516.4207 315.5594Q515.74884 316.6219 514.4832 316.6219Q513.76447 316.6219 513.24884 316.3094Q512.74884 315.98126 512.2957 315.1219Q511.85822 314.2625 511.85822 313.3094L511.85822 311.9969Q511.85822 310.825 512.5301 309.7469Q513.20197 308.66876 514.4676 308.66876Q515.18634 308.66876 515.68634 308.9969Q516.18634 309.3094 516.63947 310.16876Q517.0926 311.02814 517.0926 311.9969ZM515.88947 311.9969Q515.88947 311.0125 515.3426 310.27814Q515.0301 309.8719 514.4676 309.8719Q513.9207 309.8719 513.57697 310.325Q513.06134 310.9969 513.06134 311.9969L513.06134 313.3094Q513.06134 314.29376 513.6082 315.0125Q513.9207 315.41876 514.4832 315.41876Q515.0301 315.41876 515.37384 314.98126Q515.88947 314.3094 515.88947 313.3094L515.88947 311.9969ZM520.3582 315.2469L522.9832 315.2469Q523.20197 315.075 523.38947 315.075Q523.6707 315.075 523.82697 315.2625Q523.99884 315.4344 523.99884 315.8719L523.99884 316.45L518.51447 316.45L518.51447 315.1844Q521.76447 312.4969 522.43634 311.73126Q522.7801 311.34064 522.7801 310.98126Q522.7801 310.54376 522.38947 310.21564Q522.01447 309.8719 521.37384 309.8719Q520.7332 309.8719 520.2957 310.2469Q520.07697 310.45 519.93634 310.84064Q519.8582 311.09064 519.7176 311.2Q519.57697 311.29376 519.3582 311.29376Q519.12384 311.29376 518.93634 311.1219Q518.76447 310.95 518.76447 310.71564Q518.76447 310.35626 519.07697 309.84064Q519.4051 309.3094 520.0301 308.9969Q520.6551 308.66876 521.38947 308.66876Q522.5301 308.66876 523.24884 309.35626Q523.9832 310.04376 523.9832 311.02814Q523.9832 311.52814 523.76447 311.95Q523.56134 312.3719 522.7801 313.1219Q522.1551 313.71564 520.3582 315.2469ZM529.0926 308.66876L529.0926 315.2469L530.2957 315.2469Q530.7332 315.2469 530.9207 315.41876Q531.1082 315.575 531.1082 315.85626Q531.1082 316.1219 530.9207 316.29376Q530.7332 316.45 530.2957 316.45L526.6707 316.45Q526.2332 316.45 526.0457 316.29376Q525.87384 316.1219 525.87384 315.84064Q525.87384 315.575 526.0457 315.41876Q526.2332 315.2469 526.6707 315.2469L527.88947 315.2469L527.88947 310.23126L526.81134 310.5125Q526.56134 310.59064 526.4207 310.59064Q526.20197 310.59064 526.0301 310.41876Q525.8582 310.23126 525.8582 309.96564Q525.8582 309.71564 525.9832 309.59064Q526.1082 309.45 526.49884 309.34064L529.0926 308.66876Z" fill-rule="nonzero"/></svg>